<svg width="95" height="84" viewBox="0 0 95 84" fill="none" xmlns="http://www.w3.org/2000/svg">
<path d="M47.5 0L51.8626 32.6873L81.0876 12.3015L58.0322 38.1426L95 42L58.0322 45.8574L81.0876 71.6985L51.8626 51.3127L47.5 84L43.1374 51.3127L13.9124 71.6985L36.9678 45.8574L0 42L36.9678 38.1426L13.9124 12.3015L43.1374 32.6873L47.5 0Z" fill="#F1EDD7"/>
<path d="M47.5 0L51.8626 32.6873L81.0876 12.3015L58.0322 38.1426L95 42L58.0322 45.8574L81.0876 71.6985L51.8626 51.3127L47.5 84L43.1374 51.3127L13.9124 71.6985L36.9678 45.8574L0 42L36.9678 38.1426L13.9124 12.3015L43.1374 32.6873L47.5 0Z" stroke="#F5F5F5"/>
</svg>
