<svg width="92" height="37" viewBox="0 0 92 37" fill="none" xmlns="http://www.w3.org/2000/svg">
<path d="M91.5482 18.3096C91.5482 18.3096 61.4816 36.1244 44.5369 36.1244C27.5923 36.1244 0 18.3096 0 18.3096C0 18.3096 27.5923 0 44.5369 0C61.4816 0 91.5482 18.3096 91.5482 18.3096Z" fill="#F1EDD7"/>
<path d="M62.3519 18.3096C62.3519 28.1485 54.3758 36.1244 44.5369 36.1244C34.6981 36.1244 26.7223 28.1485 26.7223 18.3096C26.7223 8.47081 34.6983 0.494866 44.5371 0.494866C54.3759 0.494866 62.3519 8.47081 62.3519 18.3096Z" fill="#1F1F1F"/>
<path d="M44.5371 13.3611C44.5371 16.0941 42.3216 18.3096 39.5886 18.3096C36.8555 18.3096 34.64 16.0941 34.64 13.3611C34.64 10.6281 36.8555 8.41253 39.5886 8.41253C42.3216 8.41253 44.5371 10.6281 44.5371 13.3611Z" fill="#F1EDD7"/>
</svg>
