<svg width="92" height="37" viewBox="0 0 92 37" fill="none" xmlns="http://www.w3.org/2000/svg">
<path d="M90.7171 17.8133L90.4627 18.2438C90.4975 18.2644 90.5313 18.2843 90.564 18.3037C90.5322 18.3221 90.4993 18.341 90.4655 18.3604L90.7146 18.7939C90.2949 19.0352 89.7251 19.3596 89.0242 19.7515L88.7802 19.3151C88.2771 19.5964 87.7063 19.9125 87.0749 20.2577L87.3147 20.6964C86.7827 20.9872 86.2077 21.2986 85.5941 21.6269L85.3582 21.186C84.8138 21.4773 84.239 21.7821 83.6366 22.0977L83.8686 22.5406C83.3153 22.8306 82.7387 23.1298 82.1413 23.4364L81.913 22.9915C81.3525 23.2792 80.7735 23.5733 80.1781 23.8723L80.4024 24.3191C79.8343 24.6044 79.2512 24.8941 78.6548 25.1869L78.4344 24.7381C77.8624 25.0189 77.2782 25.3025 76.6831 25.5878L76.8992 26.0387C76.3211 26.3158 75.7329 26.5944 75.1357 26.8735L74.924 26.4206C74.343 26.6921 73.7536 26.9641 73.157 27.2355L73.3641 27.6906C72.7772 27.9576 72.1834 28.224 71.5838 28.4889L71.3818 28.0315C70.7923 28.2919 70.1973 28.5508 69.5979 28.8072L69.7946 29.2669C69.1991 29.5217 68.5992 29.7741 67.996 30.0232L67.8051 29.5611C67.2073 29.808 66.6063 30.0517 66.0032 30.2912L66.1878 30.7559C65.5835 30.9959 64.977 31.2318 64.3694 31.4627L64.1918 30.9953C63.5854 31.2258 62.978 31.4512 62.3707 31.6708L62.5406 32.141C61.9271 32.3628 61.3135 32.5786 60.7008 32.7877L60.5394 32.3144C59.9238 32.5245 59.3095 32.7275 58.6975 32.9226L58.8493 33.399C58.2254 33.5979 57.6037 33.7886 56.9854 33.9704L56.8444 33.4906C56.2186 33.6745 55.5966 33.849 54.9795 34.013L55.108 34.4962C54.472 34.6653 53.841 34.8234 53.2163 34.9696L53.1024 34.4827C52.465 34.6318 51.8346 34.7682 51.2127 34.8907L51.3094 35.3812C50.6594 35.5093 50.0181 35.6224 49.387 35.7194L49.3111 35.2252C48.6615 35.325 48.0238 35.4073 47.3997 35.4707L47.4502 35.9681C46.7861 36.0356 46.1363 36.0821 45.5027 36.1059L45.4839 35.6062C45.1635 35.6183 44.8478 35.6244 44.5369 35.6244C44.2137 35.6244 43.8862 35.6178 43.5546 35.6048L43.535 36.1044C42.8764 36.0786 42.2037 36.028 41.5187 35.9548L41.5718 35.4576C40.9242 35.3884 40.2646 35.2984 39.5948 35.1893L39.5145 35.6828C38.862 35.5765 38.2008 35.4524 37.5326 35.3121L37.6354 34.8228C36.9929 34.6878 36.3432 34.5376 35.688 34.3734L35.5665 34.8584C34.921 34.6966 34.2707 34.5216 33.6169 34.3346L33.7544 33.8539C33.1178 33.6718 32.4776 33.4782 31.8351 33.2743L31.6839 33.7508C31.0465 33.5485 30.4071 33.3362 29.7671 33.1151L29.9303 32.6425C29.3006 32.4249 28.67 32.1987 28.0397 31.965L27.8659 32.4338C27.2361 32.2003 26.6069 31.9594 25.9795 31.7122L26.1628 31.247C25.5395 31.0015 24.9178 30.7497 24.299 30.4928L24.1073 30.9546C23.4843 30.6959 22.8643 30.4321 22.2485 30.1643L22.4479 29.7058C21.8304 29.4373 21.217 29.1647 20.609 28.8891L20.4026 29.3445C19.7853 29.0647 19.1737 28.782 18.5689 28.4975L18.7818 28.0451C18.169 27.7568 17.5632 27.4666 16.9659 27.1758L16.747 27.6254C16.1342 27.3271 15.5303 27.0282 14.9366 26.73L15.1611 26.2832C14.5518 25.9773 13.9535 25.672 13.3675 25.369L13.1378 25.8131C12.5283 25.4979 11.9323 25.1851 11.3514 24.8763L11.586 24.4348C10.9789 24.1121 10.3884 23.7938 9.81649 23.4818L9.57702 23.9207C8.96322 23.5859 8.37084 23.2582 7.80236 22.9402L8.04651 22.5038C7.43348 22.1608 6.84831 21.8289 6.29412 21.511L6.04536 21.9448C5.42272 21.5877 4.83908 21.2482 4.29885 20.9305L4.5523 20.4995C3.9141 20.1242 3.3367 19.7794 2.82742 19.4719L2.56898 19.8999C1.8508 19.4663 1.26745 19.1065 0.83923 18.8395L1.10381 18.4152C1.04104 18.376 0.981626 18.3389 0.925641 18.3038C0.982274 18.2674 1.04244 18.2287 1.10607 18.1879L0.836253 17.767C1.26286 17.4935 1.84401 17.1251 2.5595 16.681L2.82317 17.1059C3.33087 16.7908 3.90654 16.4374 4.5429 16.0527L4.28423 15.6248C4.82309 15.299 5.40529 14.9509 6.02646 14.5847L6.28042 15.0154C6.83296 14.6896 7.41642 14.3493 8.02769 13.9977L7.77837 13.5643C8.34536 13.2381 8.93621 12.9021 9.54846 12.5587L9.79308 12.9947C10.3641 12.6744 10.9537 12.3477 11.56 12.0163L11.3202 11.5776C11.8999 11.2607 12.4948 10.9397 13.1031 10.6162L13.3379 11.0576C13.9228 10.7466 14.5202 10.4332 15.1284 10.119L14.8989 9.67481C15.4917 9.36861 16.0948 9.06163 16.7068 8.75524L16.9306 9.20234C17.5273 8.90363 18.1323 8.60552 18.7444 8.3093L18.5266 7.85923C19.1309 7.56682 19.742 7.27622 20.3588 6.98863L20.5701 7.4418C21.1778 7.15848 21.7908 6.87815 22.4081 6.602L22.2039 6.1456C22.8195 5.87014 23.4394 5.59877 24.0623 5.33266L24.2587 5.79245C24.8776 5.52806 25.4993 5.26892 26.1227 5.0162L25.9348 4.55283C26.5625 4.29834 27.1921 4.05026 27.8222 3.80975L28.0005 4.27688C28.6312 4.03612 29.2624 3.80308 29.8927 3.5789L29.7251 3.10781C30.366 2.87988 31.0062 2.661 31.6445 2.45239L31.7998 2.92765C32.4434 2.71731 33.0846 2.5176 33.7222 2.32974L33.5809 1.85012C34.2362 1.65707 34.888 1.47635 35.5349 1.30933L35.6599 1.79345C36.3168 1.62386 36.9681 1.46864 37.6123 1.32921L37.5065 0.840523C38.1768 0.695424 38.8401 0.567111 39.4947 0.457177L39.5775 0.950272C40.2494 0.83743 40.9111 0.744356 41.5608 0.672702L41.5059 0.175716C42.1938 0.0998475 42.8694 0.0475141 43.5306 0.0207437L43.5509 0.520334C43.8837 0.506857 44.2125 0.5 44.5369 0.5C44.8488 0.5 45.1656 0.506337 45.4871 0.518804L45.5065 0.0191799C46.1424 0.0438409 46.7947 0.0919767 47.4613 0.161807L47.4093 0.659086C48.0353 0.724661 48.675 0.80975 49.3266 0.912936L49.4048 0.419089C50.0378 0.519315 50.681 0.636274 51.333 0.768601L51.2335 1.25861C51.8568 1.38513 52.4887 1.52595 53.1276 1.67988L53.2447 1.19379C53.8708 1.34462 54.5031 1.50782 55.1404 1.68227L55.0084 2.16453C55.6264 2.3337 56.2494 2.51361 56.8762 2.70323L57.021 2.22465C57.6401 2.41197 58.2626 2.60862 58.8873 2.81361L58.7314 3.28868C59.344 3.48968 59.9588 3.69881 60.5749 3.91512L60.7405 3.44336C61.3535 3.65861 61.9676 3.88087 62.5815 4.10923L62.4071 4.57786C63.0147 4.80384 63.6222 5.03587 64.2287 5.27303L64.4108 4.80737C65.0185 5.04498 65.625 5.28767 66.2292 5.53456L66.0401 5.99742C66.6431 6.24378 67.2439 6.49438 67.8416 6.74829L68.0371 6.2881C68.64 6.54427 69.2397 6.80378 69.8348 7.06569L69.6335 7.52334C70.2325 7.78693 70.827 8.05301 71.416 8.32061L71.6229 7.86539C72.2219 8.13757 72.8152 8.41129 73.4015 8.68558L73.1897 9.13847C73.7856 9.41724 74.3743 9.69662 74.9546 9.97555L75.1712 9.52491C75.7676 9.81155 76.3551 10.0977 76.9324 10.3823L76.7113 10.8307C77.3055 11.1236 77.8888 11.4148 78.4599 11.7031L78.6852 11.2567C79.2806 11.5572 79.8627 11.8546 80.4298 12.1473L80.2004 12.5916C80.7947 12.8984 81.3724 13.2002 81.9318 13.4953L82.1651 13.053C82.7612 13.3675 83.3365 13.6744 83.8886 13.9719L83.6514 14.412C84.2528 14.736 84.8267 15.0487 85.3701 15.3476L85.611 14.9095C86.2229 15.2461 86.7962 15.5652 87.3267 15.8633L87.0818 16.2992C87.7117 16.6531 88.281 16.9772 88.7827 17.2656L89.0319 16.8321C89.7306 17.2337 90.2987 17.5661 90.7171 17.8133Z" fill="#F1EDD7" stroke="#F1EDD7" stroke-dasharray="2 2"/>
<circle cx="44.5369" cy="18.3096" r="17.8148" fill="#1F1F1F"/>
<circle cx="39.5887" cy="13.3611" r="4.94855" fill="#F1EDD7"/>
</svg>
