<svg width="97" height="97" viewBox="0 0 97 97" fill="none" xmlns="http://www.w3.org/2000/svg">
<path d="M48.5 97L40.3752 81.4635L25.9609 91.4446L25.987 73.9119L8.5853 76.0511L16.7562 60.5388L0.353641 54.346L14.7976 44.4078L3.15173 31.3017L20.5597 29.2142L16.3386 12.1972L32.7227 18.4388L36.8932 1.40933L48.5 14.55L60.1068 1.40933L64.2774 18.4388L80.6615 12.1972L76.4403 29.2142L93.8483 31.3017L82.2025 44.4078L96.6464 54.346L80.2438 60.5388L88.4147 76.0511L71.013 73.9119L71.0391 91.4446L56.6248 81.4635L48.5 97Z" fill="#F1EDD7"/>
<path d="M48.5 97L40.3752 81.4635L25.9609 91.4446L25.987 73.9119L8.5853 76.0511L16.7562 60.5388L0.353641 54.346L14.7976 44.4078L3.15173 31.3017L20.5597 29.2142L16.3386 12.1972L32.7227 18.4388L36.8932 1.40933L48.5 14.55L60.1068 1.40933L64.2774 18.4388L80.6615 12.1972L76.4403 29.2142L93.8483 31.3017L82.2025 44.4078L96.6464 54.346L80.2438 60.5388L88.4147 76.0511L71.013 73.9119L71.0391 91.4446L56.6248 81.4635L48.5 97Z" stroke="#F1EDD7"/>
<path d="M55.4987 74.6184L48.8815 67.424L42.5593 74.879L40.0434 65.4335L30.9808 69.0965L33.1427 59.5637L23.4159 58.5956L29.7602 51.1594L21.5975 45.7819L30.6709 42.1458L25.9422 33.5908L35.6661 34.5879L35.4547 24.8153L43.6014 30.217L47.9558 21.4656L52.6591 30.0346L60.5817 24.3092L60.764 34.0824L70.4398 32.6946L66.0594 41.433L75.2719 44.7008L67.3323 50.4026L73.9709 57.5773L64.291 58.9364L66.835 68.3744L57.6322 65.0792L55.4987 74.6184Z" fill="#1F1F1F"/>
<path d="M55.4987 74.6184L48.8815 67.424L42.5593 74.879L40.0434 65.4335L30.9808 69.0965L33.1427 59.5637L23.4159 58.5956L29.7602 51.1594L21.5975 45.7819L30.6709 42.1458L25.9422 33.5908L35.6661 34.5879L35.4547 24.8153L43.6014 30.217L47.9558 21.4656L52.6591 30.0346L60.5817 24.3092L60.764 34.0824L70.4398 32.6946L66.0594 41.433L75.2719 44.7008L67.3323 50.4026L73.9709 57.5773L64.291 58.9364L66.835 68.3744L57.6322 65.0792L55.4987 74.6184Z" stroke="#F1EDD7"/>
</svg>
