<svg width="358" height="240" viewBox="0 0 358 240" fill="none" xmlns="http://www.w3.org/2000/svg">
<rect x="130.214" y="87.5" width="97.5714" height="65" stroke="#CB553C"/>
<rect x="104.071" y="69.5" width="149.857" height="101" stroke="#CB553C"/>
<rect x="78.3572" y="52.7856" width="201.286" height="134.429" stroke="#CB553C"/>
<rect x="53.0713" y="35.2144" width="251.857" height="169.571" stroke="#CB553C"/>
<rect x="26.9285" y="18.0715" width="304.143" height="203.857" stroke="#CB553C"/>
<rect x="0.785645" y="0.5" width="356.429" height="239" stroke="#CB553C"/>
<line x1="206.554" y1="122.99" x2="356.418" y2="140.445" stroke="#B1D5B6" stroke-linecap="round"/>
<line x1="205.337" y1="127.808" x2="356.523" y2="173.377" stroke="#B1D5B6" stroke-linecap="round"/>
<line x1="203.673" y1="131.782" x2="356.639" y2="209.756" stroke="#B1D5B6" stroke-linecap="round"/>
<line x1="199.421" y1="138.418" x2="303.275" y2="239.293" stroke="#B1D5B6" stroke-linecap="round"/>
<line x1="195.555" y1="141.971" x2="265.685" y2="239.302" stroke="#B1D5B6" stroke-linecap="round"/>
<line x1="191.238" y1="144.234" x2="236.663" y2="238.904" stroke="#B1D5B6" stroke-linecap="round"/>
<line x1="185.617" y1="146.059" x2="211.916" y2="238.954" stroke="#B1D5B6" stroke-linecap="round"/>
<line x1="201.551" y1="135.292" x2="356.72" y2="239.306" stroke="#B1D5B6" stroke-linecap="round"/>
<line x1="206.469" y1="118.185" x2="356.328" y2="109.245" stroke="#B1D5B6" stroke-linecap="round"/>
<line x1="205.941" y1="113.397" x2="357.111" y2="77.2016" stroke="#B1D5B6" stroke-linecap="round"/>
<line x1="204.974" y1="109.057" x2="357.056" y2="43.0263" stroke="#B1D5B6" stroke-linecap="round"/>
<line x1="202.28" y1="104.306" x2="356.163" y2="1.14882" stroke="#B1D5B6" stroke-linecap="round"/>
<line x1="0.5" y1="-0.5" x2="151.377" y2="-0.5" transform="matrix(-0.993285 0.115695 0.115695 0.993285 152 123.428)" stroke="#B1D5B6" stroke-linecap="round"/>
<line x1="0.5" y1="-0.5" x2="158.404" y2="-0.5" transform="matrix(-0.957454 0.288585 0.288585 0.957454 153.286 128.143)" stroke="#B1D5B6" stroke-linecap="round"/>
<line x1="0.5" y1="-0.5" x2="172.194" y2="-0.5" transform="matrix(-0.890926 0.454149 0.454149 0.890926 155 132)" stroke="#B1D5B6" stroke-linecap="round"/>
<line x1="0.5" y1="-0.5" x2="145.28" y2="-0.5" transform="matrix(-0.717321 0.696743 0.696743 0.717321 159.286 138.429)" stroke="#B1D5B6" stroke-linecap="round"/>
<line x1="162.821" y1="141.699" x2="91.413" y2="239.035" stroke="#B1D5B6" stroke-linecap="round"/>
<line x1="166.805" y1="143.81" x2="120.953" y2="238.91" stroke="#B1D5B6" stroke-linecap="round"/>
<line x1="171.631" y1="145.474" x2="145.331" y2="238.797" stroke="#B1D5B6" stroke-linecap="round"/>
<line x1="176.452" y1="147.115" x2="167.972" y2="239.12" stroke="#B1D5B6" stroke-linecap="round"/>
<line x1="181.68" y1="147.031" x2="188.888" y2="239.034" stroke="#B1D5B6" stroke-linecap="round"/>
<line x1="0.5" y1="-0.5" x2="145.28" y2="-0.5" transform="matrix(0.717321 -0.696743 -0.696743 -0.717321 198.714 101.572)" stroke="#B1D5B6" stroke-linecap="round"/>
<line x1="0.5" y1="-0.5" x2="120.465" y2="-0.5" transform="matrix(0.584585 -0.811333 -0.811333 -0.584585 194.857 98.1428)" stroke="#B1D5B6" stroke-linecap="round"/>
<line x1="0.5" y1="-0.5" x2="105.504" y2="-0.5" transform="matrix(0.4326 -0.901586 -0.901586 -0.4326 190.571 96)" stroke="#B1D5B6" stroke-linecap="round"/>
<line x1="0.5" y1="-0.5" x2="97.0459" y2="-0.5" transform="matrix(0.272399 -0.962184 -0.962184 -0.272399 185 94.2856)" stroke="#B1D5B6" stroke-linecap="round"/>
<line x1="158.579" y1="101.582" x2="54.7245" y2="0.707131" stroke="#B1D5B6" stroke-linecap="round"/>
<line x1="0.5" y1="-0.5" x2="121.221" y2="-0.5" transform="matrix(-0.591516 -0.806293 -0.806293 0.591516 162.714 99)" stroke="#B1D5B6" stroke-linecap="round"/>
<line x1="0.5" y1="-0.5" x2="106.076" y2="-0.5" transform="matrix(-0.434299 -0.900769 -0.900769 0.434299 166.571 96.8572)" stroke="#B1D5B6" stroke-linecap="round"/>
<line x1="0.5" y1="-0.5" x2="97.4583" y2="-0.5" transform="matrix(-0.271252 -0.962508 -0.962508 0.271252 171.286 95.1428)" stroke="#B1D5B6" stroke-linecap="round"/>
<line x1="0.5" y1="-0.5" x2="92.8942" y2="-0.5" transform="matrix(-0.0917769 -0.99578 -0.99578 0.0917769 176 93.4285)" stroke="#B1D5B6" stroke-linecap="round"/>
<line x1="0.5" y1="-0.5" x2="92.785" y2="-0.5" transform="matrix(0.0781017 -0.996945 -0.996945 -0.0781017 181.143 93.4285)" stroke="#B1D5B6" stroke-linecap="round"/>
<line x1="0.5" y1="-0.5" x2="187.306" y2="-0.5" transform="matrix(-0.830643 0.556805 0.556805 0.830643 157.143 135.429)" stroke="#B1D5B6" stroke-linecap="round"/>
<line x1="0.5" y1="-0.5" x2="150.625" y2="-0.5" transform="matrix(-0.998225 -0.0595532 -0.0595532 0.998225 152 118.714)" stroke="#B1D5B6" stroke-linecap="round"/>
<line x1="0.5" y1="-0.5" x2="155.943" y2="-0.5" transform="matrix(-0.972511 -0.232855 -0.232855 0.972511 152.428 114)" stroke="#B1D5B6" stroke-linecap="round"/>
<line x1="0.5" y1="-0.5" x2="166.299" y2="-0.5" transform="matrix(-0.917274 -0.398256 -0.398256 0.917274 153.286 109.714)" stroke="#B1D5B6" stroke-linecap="round"/>
<line x1="0.5" y1="-0.5" x2="185.761" y2="-0.5" transform="matrix(-0.830632 -0.556822 -0.556822 0.830632 155.857 105)" stroke="#B1D5B6" stroke-linecap="round"/>
</svg>
