<svg width="44" height="46" viewBox="0 0 44 46" fill="none" xmlns="http://www.w3.org/2000/svg">
<path d="M12.8298 0C5.75492 0 0 6.02208 0 13.4204V32.5871C0 39.9835 5.76025 46 12.8369 46H31.1702C38.2451 46 44 39.9779 44 32.5796V13.4129C44 6.01651 38.2398 0 31.1631 0H12.8298ZM34.8333 7.66667C35.8453 7.66667 36.6667 8.52533 36.6667 9.58333C36.6667 10.6413 35.8453 11.5 34.8333 11.5C33.8213 11.5 33 10.6413 33 9.58333C33 8.52533 33.8213 7.66667 34.8333 7.66667ZM22 11.5C28.0665 11.5 33 16.6577 33 23C33 29.3422 28.0665 34.5 22 34.5C15.9335 34.5 11 29.3422 11 23C11 16.6577 15.9335 11.5 22 11.5ZM22 15.3333C20.0551 15.3333 18.1898 16.1411 16.8146 17.5788C15.4393 19.0166 14.6667 20.9667 14.6667 23C14.6667 25.0333 15.4393 26.9834 16.8146 28.4212C18.1898 29.8589 20.0551 30.6667 22 30.6667C23.9449 30.6667 25.8102 29.8589 27.1854 28.4212C28.5607 26.9834 29.3333 25.0333 29.3333 23C29.3333 20.9667 28.5607 19.0166 27.1854 17.5788C25.8102 16.1411 23.9449 15.3333 22 15.3333Z" fill="white"/>
</svg>
