<svg width="1440" height="113" viewBox="0 0 1440 113" fill="none" xmlns="http://www.w3.org/2000/svg">
<path d="M550.036 111C565.645 111 560.136 2 576.664 2C593.191 2 585.845 111 601.455 111C617.064 111 614.309 2 628.082 2C641.855 2 632.673 111 649.2 111C665.727 111 662.973 2 677.664 2C692.355 2 685.927 111 699.7 111C713.473 111 709.8 2 726.327 2C742.855 2 734.591 111 751.118 111C767.645 111 753.873 2 772.236 2C790.6 2 775.909 111 797.945 111C819.982 111 804.373 2 820.9 2C837.427 2 829.164 111 846.609 111C864.055 111 856.709 2 872.318 2C887.927 2 880.582 111 895.273 111C909.964 111 904.455 2 919.145 2C933.836 2 927.409 111 943.018 111C958.627 111 941.182 2 963.218 2C985.255 2 965.973 111 983.418 111C1000.86 111 986.173 2 1008.21 2C1030.25 2 1010.96 111 1033 111" stroke="#B1D5B6" stroke-width="3"/>
<path d="M1538 22.322C1535.86 51.8814 1528.45 111 1515.96 111C1500.35 111 1505.86 2 1489.34 2C1472.81 2 1480.15 111 1464.55 111C1448.94 111 1451.69 2 1437.92 2C1424.15 2 1433.33 111 1416.8 111C1400.27 111 1403.03 2 1388.34 2C1373.65 2 1380.07 111 1366.3 111C1352.53 111 1356.2 2 1339.67 2C1323.15 2 1331.41 111 1314.88 111C1298.35 111 1312.13 2 1293.76 2C1275.4 2 1290.09 111 1268.05 111C1246.02 111 1261.63 2 1245.1 2C1228.57 2 1236.84 111 1219.39 111C1201.95 111 1209.29 2 1193.68 2C1178.07 2 1185.42 111 1170.73 111C1156.04 111 1161.55 2 1146.85 2C1132.16 2 1138.59 111 1122.98 111C1107.37 111 1124.82 2 1102.78 2C1080.75 2 1100.03 111 1082.58 111C1065.14 111 1079.83 2 1057.79 2C1035.75 2 1055.04 111 1033 111" stroke="#B1D5B6" stroke-width="3"/>
<path d="M-438 22.322C-435.858 51.8814 -428.451 111 -415.964 111C-400.355 111 -405.864 2 -389.336 2C-372.809 2 -380.155 111 -364.545 111C-348.936 111 -351.691 2 -337.918 2C-324.145 2 -333.327 111 -316.8 111C-300.273 111 -303.027 2 -288.336 2C-273.645 2 -280.073 111 -266.3 111C-252.527 111 -256.2 2 -239.673 2C-223.145 2 -231.409 111 -214.882 111C-198.355 111 -212.127 2 -193.764 2C-175.4 2 -190.091 111 -168.055 111C-146.018 111 -161.627 2 -145.1 2C-128.573 2 -136.836 111 -119.391 111C-101.945 111 -109.291 2 -93.6818 2C-78.0727 2 -85.4182 111 -70.7273 111C-56.0364 111 -61.5454 2 -46.8545 2C-32.1636 2 -38.5909 111 -22.9818 111C-7.37272 111 -24.8182 2 -2.78181 2C19.2546 2 -0.0272639 111 17.4182 111C34.8636 111 20.1727 2 42.2091 2C64.2455 2 44.9636 111 67 111" stroke="#B1D5B6" stroke-width="3"/>
<path d="M549.964 111C534.355 111 539.864 2 523.336 2C506.809 2 514.155 111 498.545 111C482.936 111 485.691 2 471.918 2C458.145 2 467.327 111 450.8 111C434.273 111 437.027 2 422.336 2C407.645 2 414.073 111 400.3 111C386.527 111 390.2 2 373.673 2C357.145 2 365.409 111 348.882 111C332.355 111 346.127 2 327.764 2C309.4 2 324.091 111 302.055 111C280.018 111 295.627 2 279.1 2C262.573 2 270.836 111 253.391 111C235.945 111 243.291 2 227.682 2C212.073 2 219.418 111 204.727 111C190.036 111 195.545 2 180.855 2C166.164 2 172.591 111 156.982 111C141.373 111 158.818 2 136.782 2C114.745 2 134.027 111 116.582 111C99.1364 111 113.827 2 91.7909 2C69.7545 2 89.0364 111 67 111" stroke="#B1D5B6" stroke-width="3"/>
</svg>
