<?xml version="1.0" encoding="UTF-8"?>
<svg id="Layer_1" data-name="Layer 1" xmlns="http://www.w3.org/2000/svg" viewBox="0 0 1978.99 112">
  <defs>
    <style>
      .cls-1 {
        fill: #b1d5b6;
      }
    </style>
  </defs>
  <path class="cls-1" d="m989.53,112c.71,0,1.4-.16,2.03-.45,1.23-.57,2.19-1.56,3.02-2.81,1.54-2.34,2.71-5.66,3.73-9.78,1.77-7.21,3.03-16.84,4.14-27.3,1.67-15.67,3.01-33.16,5.15-46.66,1.06-6.74,2.34-12.49,3.9-16.42.77-1.96,1.62-3.45,2.44-4.36.41-.46.8-.77,1.17-.95.36-.19.69-.27,1.06-.27.31,0,.59.06.88.19.56.24,1.21.8,1.87,1.75,1.24,1.78,2.4,4.87,3.36,8.82,1.69,6.92,2.86,16.48,3.83,26.88,1.45,15.61,2.47,33.11,4.29,46.79.92,6.85,2.02,12.73,3.55,17.03.77,2.16,1.63,3.93,2.73,5.27.55.67,1.18,1.23,1.9,1.63.72.4,1.54.64,2.38.63.71,0,1.4-.16,2.03-.45,1.23-.56,2.21-1.55,3.06-2.79,1.6-2.33,2.84-5.65,3.95-9.77,1.93-7.2,3.38-16.85,4.67-27.3,1.93-15.68,3.48-33.17,5.56-46.69,1.04-6.75,2.22-12.52,3.6-16.47.68-1.97,1.43-3.49,2.13-4.4.35-.46.68-.75.95-.92.27-.17.47-.21.68-.22.18,0,.33.04.52.14.36.18.9.71,1.41,1.67.99,1.78,1.88,4.9,2.59,8.86,1.25,6.94,2.01,16.51,2.64,26.92.94,15.62,1.59,33.13,3.25,46.82.83,6.85,1.91,12.74,3.46,17.06.78,2.16,1.68,3.94,2.83,5.29.58.67,1.23,1.23,1.97,1.63.74.4,1.59.62,2.45.62,1.46,0,2.81-.63,3.88-1.61,1.02-.92,1.88-2.13,2.66-3.59,1.46-2.74,2.66-6.37,3.73-10.7,1.87-7.56,3.31-17.2,4.62-27.46,1.96-15.37,3.61-32.11,5.81-44.92,1.1-6.4,2.34-11.83,3.78-15.53.71-1.85,1.48-3.26,2.2-4.1.36-.42.7-.7.99-.87.29-.16.53-.22.79-.22.23,0,.42.05.65.16.44.21,1.03.75,1.61,1.71,1.11,1.79,2.15,4.89,3.01,8.85,1.51,6.93,2.56,16.5,3.43,26.9,1.3,15.61,2.21,33.12,3.83,46.79.81,6.84,1.79,12.71,3.14,17,.68,2.15,1.43,3.91,2.41,5.25.49.67,1.04,1.24,1.71,1.66.66.42,1.45.68,2.26.68.68,0,1.35-.18,1.93-.48,1.14-.6,1.99-1.6,2.74-2.83,1.38-2.32,2.44-5.63,3.4-9.75,1.65-7.19,2.9-16.82,4.06-27.27,1.74-15.66,3.27-33.15,5.59-46.65,1.15-6.74,2.52-12.49,4.13-16.42.8-1.96,1.67-3.46,2.51-4.37.42-.46.82-.77,1.19-.96.37-.19.71-.27,1.07-.27.31,0,.58.06.87.19.56.24,1.2.79,1.85,1.75,1.22,1.78,2.36,4.86,3.29,8.81,1.64,6.92,2.74,16.48,3.65,26.88,1.37,15.61,2.31,33.12,4.16,46.8.93,6.85,2.07,12.74,3.66,17.05.8,2.16,1.71,3.94,2.88,5.28.58.67,1.24,1.23,1.98,1.62.74.4,1.59.62,2.45.62.72,0,1.43-.15,2.08-.44,1.26-.57,2.23-1.58,3.02-2.84,1.48-2.37,2.47-5.7,3.26-9.83,1.36-7.22,2-16.86,2.45-27.31.67-15.67.88-33.16,2.29-46.64.7-6.73,1.71-12.47,3.15-16.37.71-1.95,1.54-3.42,2.37-4.31.42-.45.83-.76,1.23-.95.4-.2.8-.29,1.27-.29.77,0,1.38.25,2.08.85.64.56,1.3,1.48,1.91,2.72,1.15,2.33,2.09,5.77,2.82,9.95,1.29,7.32,1.98,16.9,2.53,27.11.83,15.33,1.37,32.09,3.31,45.13.98,6.53,2.28,12.12,4.26,16.25.99,2.06,2.15,3.77,3.61,5.02,1.45,1.25,3.24,1.99,5.19,1.98,1.69,0,3.27-.54,4.59-1.51,1.24-.9,2.28-2.14,3.17-3.63,1.67-2.78,2.87-6.46,3.81-10.8,1.64-7.6,2.45-17.26,2.97-27.53.77-15.39.87-32.13,1.96-44.94.54-6.4,1.34-11.82,2.53-15.49.59-1.83,1.28-3.21,1.98-4.02.34-.41.68-.68.99-.84.31-.16.61-.24.96-.24.31,0,.58.06.88.19.56.24,1.2.79,1.85,1.75,1.23,1.78,2.36,4.87,3.3,8.81,1.65,6.92,2.77,16.48,3.7,26.88,1.41,15.61,2.43,33.12,4.41,46.81,1,6.85,2.22,12.74,3.92,17.07.86,2.16,1.83,3.95,3.06,5.28.61.66,1.3,1.22,2.08,1.61.77.39,1.63.6,2.52.6,1.49,0,2.88-.61,3.98-1.6,1.05-.92,1.91-2.15,2.68-3.61,1.44-2.75,2.55-6.4,3.51-10.72,1.67-7.56,2.8-17.21,3.77-27.47,1.45-15.38,2.52-32.11,4.33-44.92.9-6.4,2.01-11.82,3.38-15.51.68-1.84,1.43-3.24,2.16-4.07.36-.42.7-.7,1.01-.86.31-.16.58-.23.89-.23.27,0,.5.05.77.17.5.23,1.11.77,1.73,1.73,1.17,1.78,2.25,4.88,3.14,8.83,1.57,6.93,2.64,16.49,3.51,26.89,1.31,15.61,2.2,33.12,3.86,46.79.84,6.84,1.85,12.72,3.27,17.02.71,2.15,1.52,3.92,2.55,5.26.52.67,1.11,1.24,1.8,1.65.69.41,1.49.66,2.32.65.69,0,1.37-.17,1.98-.47,1.18-.59,2.08-1.59,2.86-2.83,1.44-2.34,2.52-5.65,3.47-9.77,1.64-7.2,2.78-16.84,3.77-27.29,1.48-15.67,2.62-33.17,4.47-46.67.92-6.75,2.03-12.51,3.4-16.44.68-1.97,1.43-3.47,2.15-4.37.36-.45.7-.75.99-.92.3-.17.53-.23.8-.23.23,0,.42.05.65.16.44.21,1.03.75,1.61,1.71,1.11,1.79,2.15,4.89,3.02,8.85,1.53,6.93,2.6,16.5,3.53,26.91,1.39,15.62,2.45,33.13,4.34,46.81.95,6.85,2.09,12.73,3.65,17.04.78,2.16,1.66,3.93,2.77,5.27.56.67,1.18,1.23,1.91,1.63.72.4,1.54.63,2.39.63.71,0,1.4-.16,2.02-.46,1.21-.59,2.1-1.63,2.81-2.89,1.31-2.38,2.12-5.7,2.72-9.83,1.03-7.21,1.32-16.84,1.47-27.29.22-15.66.11-33.14,1.57-46.59.72-6.72,1.86-12.44,3.53-16.3.83-1.93,1.79-3.39,2.79-4.3,1.02-.91,2.02-1.32,3.29-1.34,1.07,0,1.92.31,2.77.93.79.59,1.55,1.49,2.25,2.72,1.31,2.3,2.36,5.72,3.12,9.88,1.34,7.29,1.85,16.85,2.05,27.05.3,15.31-.09,32.05.71,45.05.4,6.51,1.09,12.08,2.38,16.18.65,2.05,1.45,3.76,2.55,5.06.55.64,1.2,1.18,1.94,1.56.74.38,1.57.58,2.43.58.74,0,1.47-.15,2.13-.43,1.3-.55,2.32-1.56,3.16-2.82,1.57-2.37,2.62-5.72,3.45-9.85,1.45-7.22,2.15-16.86,2.7-27.32.81-15.67,1.24-33.15,3.09-46.61.92-6.72,2.21-12.44,3.99-16.31.88-1.94,1.88-3.4,2.92-4.31,1.05-.92,2.08-1.34,3.35-1.35,1.07,0,1.92.31,2.77.93.79.59,1.56,1.49,2.26,2.72,1.32,2.31,2.38,5.72,3.17,9.89,1.39,7.29,1.98,16.86,2.34,27.06.54,15.32.54,32.07,2.02,45.1.75,6.53,1.84,12.12,3.65,16.26.91,2.07,2.01,3.79,3.43,5.05,1.41,1.26,3.2,2,5.15,1.99v-3c-1.07,0-1.92-.31-2.77-.93-.79-.59-1.56-1.49-2.26-2.72-1.32-2.31-2.38-5.72-3.17-9.89-1.39-7.29-1.98-16.86-2.34-27.06-.54-15.32-.54-32.07-2.02-45.1-.75-6.53-1.84-12.12-3.65-16.26-.91-2.07-2.01-3.79-3.43-5.05-1.41-1.26-3.2-2-5.15-1.99-1.69,0-3.27.54-4.6,1.51-1.25.9-2.29,2.14-3.2,3.62-1.69,2.78-2.93,6.46-3.91,10.8-1.71,7.6-2.62,17.26-3.26,27.53-.95,15.39-1.27,32.12-2.59,44.93-.66,6.39-1.59,11.81-2.9,15.47-.65,1.83-1.4,3.2-2.15,4.03-.37.41-.74.69-1.09.87-.35.17-.69.26-1.1.26-.35,0-.64-.06-.93-.19-.55-.24-1.15-.76-1.73-1.69-1.1-1.74-2.01-4.81-2.63-8.75-1.1-6.91-1.41-16.47-1.51-26.88-.15-15.62.16-33.14-1.14-46.86-.66-6.87-1.7-12.79-3.51-17.16-.91-2.19-2.01-4.01-3.46-5.34-1.43-1.34-3.27-2.13-5.28-2.12-1.69,0-3.27.55-4.58,1.52-1.23.91-2.25,2.15-3.12,3.64-1.62,2.79-2.76,6.47-3.62,10.81-1.5,7.6-2.13,17.27-2.45,27.53-.46,15.39-.2,32.13-.94,44.95-.37,6.4-1,11.83-2.04,15.5-.51,1.83-1.14,3.22-1.77,4.02-.31.4-.61.66-.88.81-.27.15-.51.22-.82.22-.27,0-.51-.05-.77-.17-.5-.23-1.12-.78-1.75-1.74-1.18-1.79-2.3-4.88-3.22-8.83-1.63-6.93-2.78-16.49-3.74-26.89-1.44-15.61-2.48-33.12-4.25-46.79-.89-6.84-1.96-12.72-3.41-17.02-.73-2.15-1.55-3.92-2.59-5.26-.52-.67-1.11-1.23-1.81-1.65-.69-.41-1.5-.66-2.32-.65-.69,0-1.37.17-1.98.47-1.18.59-2.08,1.59-2.86,2.83-1.45,2.34-2.52,5.65-3.47,9.77-1.64,7.2-2.78,16.84-3.77,27.29-1.48,15.67-2.62,33.17-4.47,46.67-.92,6.75-2.03,12.51-3.4,16.44-.68,1.97-1.43,3.47-2.15,4.37-.36.45-.7.75-.99.92-.3.17-.53.23-.8.23-.23,0-.42-.05-.65-.16-.44-.21-1.01-.75-1.59-1.71-1.09-1.79-2.11-4.89-2.94-8.84-1.47-6.93-2.46-16.5-3.3-26.91-1.26-15.62-2.17-33.12-3.95-46.81-.89-6.85-1.99-12.73-3.51-17.04-.77-2.16-1.63-3.93-2.73-5.27-.55-.67-1.18-1.23-1.9-1.63-.72-.4-1.54-.64-2.38-.63-.71,0-1.4.16-2.03.45-1.22.57-2.17,1.57-2.98,2.82-1.51,2.34-2.62,5.67-3.57,9.79-1.66,7.21-2.77,16.84-3.74,27.3-1.45,15.67-2.57,33.16-4.62,46.65-1.02,6.74-2.28,12.48-3.86,16.4-.78,1.96-1.65,3.44-2.5,4.35-.43.46-.84.77-1.23.96-.39.19-.76.28-1.18.28-.69,0-1.28-.24-1.99-.85-.65-.57-1.33-1.5-1.98-2.75-1.21-2.34-2.28-5.79-3.17-9.97-1.56-7.32-2.63-16.9-3.54-27.11-1.36-15.32-2.36-32.07-4.23-45.07-.94-6.51-2.08-12.07-3.66-16.15-.8-2.04-1.69-3.73-2.83-4.99-.57-.63-1.21-1.16-1.94-1.53-.73-.37-1.54-.58-2.38-.58-.72,0-1.43.15-2.08.45-1.25.57-2.22,1.59-2.99,2.85-1.45,2.37-2.39,5.71-3.13,9.84-1.27,7.22-1.81,16.85-2.2,27.3-.58,15.66-.82,33.15-2.53,46.6-.85,6.72-2.09,12.44-3.82,16.31-.86,1.94-1.85,3.39-2.88,4.31-1.04.92-2.06,1.33-3.33,1.34-1.07,0-1.95-.31-2.84-.94-.83-.6-1.64-1.51-2.39-2.75-1.42-2.32-2.61-5.74-3.56-9.9-1.66-7.29-2.59-16.85-3.25-27.05-.99-15.31-1.39-32.05-2.87-45.06-.75-6.51-1.75-12.08-3.31-16.19-.79-2.05-1.71-3.76-2.93-5.03-.61-.63-1.29-1.16-2.07-1.52-.77-.36-1.62-.56-2.5-.56-1.53,0-2.95.6-4.07,1.6-1.06.93-1.91,2.17-2.64,3.65-1.37,2.77-2.35,6.42-3.12,10.75-1.34,7.57-2,17.23-2.45,27.48-.68,15.38-.88,32.11-2.1,44.91-.6,6.39-1.47,11.82-2.72,15.48-.61,1.83-1.33,3.21-2.04,4.03-.35.41-.69.68-1.01.85-.32.17-.62.24-.98.24-.31,0-.58-.06-.88-.19-.56-.24-1.2-.79-1.85-1.75-1.22-1.78-2.36-4.86-3.29-8.81-1.64-6.92-2.75-16.48-3.65-26.88-1.37-15.61-2.31-33.12-4.15-46.8-.93-6.85-2.07-12.73-3.66-17.05-.8-2.16-1.71-3.94-2.87-5.28-.58-.67-1.24-1.23-1.98-1.62-.74-.4-1.59-.62-2.45-.62-1.46,0-2.8.63-3.88,1.61-1.02.92-1.86,2.14-2.63,3.6-1.44,2.74-2.6,6.38-3.63,10.7-1.8,7.56-3.14,17.21-4.33,27.46-1.78,15.38-3.21,32.11-5.17,44.93-.98,6.41-2.1,11.84-3.41,15.55-.65,1.85-1.36,3.26-2.03,4.1-.33.42-.64.69-.89.85-.26.15-.44.2-.65.2-.18,0-.33-.04-.53-.14-.38-.19-.93-.73-1.48-1.69-1.04-1.79-2.01-4.9-2.8-8.86-1.41-6.94-2.38-16.51-3.22-26.92-1.25-15.62-2.19-33.13-3.92-46.8-.87-6.84-1.93-12.72-3.37-17.02-.73-2.15-1.55-3.92-2.59-5.26-.52-.67-1.11-1.23-1.81-1.65-.69-.41-1.5-.66-2.32-.65-.69,0-1.37.17-1.98.46-1.19.58-2.1,1.57-2.91,2.81-1.5,2.33-2.67,5.64-3.72,9.76-1.83,7.2-3.24,16.83-4.56,27.28-1.97,15.67-3.7,33.16-6.15,46.65-1.22,6.74-2.64,12.49-4.29,16.42-.82,1.96-1.71,3.46-2.56,4.38-.42.46-.83.77-1.2.97-.38.19-.71.27-1.08.28-.31,0-.58-.06-.87-.19-.55-.24-1.19-.79-1.82-1.74-1.2-1.77-2.31-4.86-3.19-8.8-1.56-6.92-2.54-16.48-3.27-26.87-1.1-15.6-1.66-33.11-2.99-46.77-.66-6.84-1.51-12.71-2.75-17-.63-2.15-1.34-3.91-2.29-5.26-.48-.67-1.02-1.25-1.68-1.68-.66-.43-1.45-.69-2.26-.68-.68,0-1.35.17-1.93.48-1.14.6-2,1.6-2.75,2.83-1.4,2.32-2.49,5.63-3.47,9.74-1.71,7.19-3.02,16.82-4.24,27.27-1.82,15.67-3.43,33.16-5.73,46.66-1.15,6.74-2.48,12.5-4.03,16.43-.77,1.97-1.61,3.47-2.41,4.38-.4.46-.78.77-1.12.95-.34.18-.63.26-.95.26-.27,0-.5-.05-.77-.17-.5-.23-1.11-.77-1.73-1.73-1.17-1.78-2.26-4.88-3.16-8.83-1.59-6.93-2.69-16.49-3.62-26.9-1.4-15.61-2.44-33.12-4.38-46.81-.97-6.85-2.16-12.74-3.79-17.05-.82-2.16-1.74-3.94-2.91-5.27-.59-.67-1.24-1.22-1.99-1.62-.75-.4-1.59-.62-2.45-.62-.72,0-1.43.15-2.08.44-1.27.55-2.29,1.54-3.17,2.78-1.64,2.34-2.88,5.67-3.96,9.8-1.88,7.21-3.21,16.86-4.36,27.31-1.72,15.68-3.03,33.17-5.06,46.67-1.01,6.74-2.21,12.5-3.68,16.43-.73,1.96-1.53,3.46-2.3,4.37-.38.45-.75.76-1.08.94-.33.18-.61.25-.93.25v3Z"/>
  <path class="cls-1" d="m1976,21.71c-1.07,14.73-3.45,36.87-7.11,55.24-1.83,9.18-3.98,17.43-6.4,23.27-1.2,2.92-2.48,5.23-3.73,6.71-.62.74-1.23,1.27-1.78,1.6-.56.33-1.04.46-1.52.46-.27,0-.51-.05-.78-.18-.51-.23-1.14-.78-1.77-1.74-1.2-1.79-2.35-4.89-3.31-8.84-1.71-6.93-2.96-16.49-4.07-26.9-1.66-15.61-3-33.12-5.17-46.81-1.09-6.85-2.37-12.74-4.07-17.05-.86-2.16-1.81-3.93-3-5.26-.59-.66-1.26-1.22-2.01-1.61-.75-.39-1.59-.62-2.45-.61-.72,0-1.43.15-2.08.44-1.26.56-2.28,1.55-3.14,2.8-1.61,2.34-2.79,5.68-3.81,9.81-1.76,7.21-2.93,16.86-3.9,27.31-1.46,15.68-2.47,33.17-4.28,46.67-.9,6.74-2,12.5-3.4,16.43-.69,1.96-1.47,3.46-2.22,4.36-.37.45-.73.75-1.05.93-.32.18-.6.25-.92.25-.27,0-.51-.05-.79-.18-.53-.23-1.18-.8-1.84-1.76-1.25-1.8-2.47-4.89-3.52-8.85-1.86-6.93-3.31-16.49-4.59-26.89-1.92-15.61-3.47-33.11-5.57-46.78-1.06-6.84-2.24-12.71-3.73-17-.75-2.15-1.57-3.9-2.58-5.23-.51-.66-1.08-1.23-1.74-1.65-.67-.42-1.45-.67-2.26-.67-.68,0-1.35.18-1.93.49-1.14.62-1.95,1.63-2.63,2.88-1.27,2.34-2.17,5.65-2.91,9.77-1.29,7.19-2.05,16.82-2.68,27.27-.94,15.66-1.6,33.15-3.24,46.64-.81,6.74-1.89,12.49-3.3,16.4-.7,1.96-1.49,3.44-2.28,4.34-.39.45-.77.75-1.11.94-.35.18-.67.26-1.04.27-.61,0-1.18-.22-1.88-.84-.65-.58-1.35-1.51-2.02-2.77-1.26-2.36-2.43-5.82-3.46-10-1.82-7.33-3.26-16.91-4.56-27.12-1.95-15.32-3.6-32.06-5.83-45.05-1.12-6.5-2.37-12.05-3.94-16.11-.79-2.03-1.65-3.7-2.71-4.96-.53-.63-1.12-1.16-1.81-1.54-.68-.38-1.46-.61-2.26-.61-.69,0-1.37.17-1.98.47-1.18.59-2.08,1.59-2.84,2.84-1.43,2.34-2.47,5.66-3.38,9.78-1.57,7.2-2.61,16.84-3.48,27.29-1.31,15.67-2.22,33.17-3.82,46.68-.8,6.75-1.78,12.51-3.02,16.46-.61,1.97-1.31,3.48-1.97,4.38-.33.45-.64.74-.89.9-.26.16-.44.21-.65.21-.18,0-.34-.04-.55-.14-.4-.2-.97-.75-1.54-1.71-1.09-1.8-2.14-4.92-3.05-8.88-1.6-6.94-2.85-16.52-4-26.93-1.73-15.62-3.27-33.13-5.62-46.82-1.18-6.85-2.55-12.74-4.32-17.05-.89-2.16-1.87-3.93-3.07-5.26-.6-.66-1.27-1.21-2.03-1.6-.75-.39-1.59-.61-2.46-.61-.72,0-1.43.15-2.08.44-1.26.56-2.27,1.56-3.12,2.8-1.59,2.35-2.74,5.68-3.73,9.81-1.71,7.21-2.81,16.86-3.72,27.31-1.37,15.67-2.32,33.17-4.14,46.66-.91,6.74-2.05,12.49-3.5,16.41-.72,1.96-1.53,3.45-2.32,4.35-.39.45-.78.76-1.13.94-.35.19-.68.27-1.04.27-.31,0-.57-.06-.85-.18-.52-.23-1.12-.76-1.72-1.71-1.13-1.76-2.11-4.84-2.85-8.79-1.31-6.92-1.96-16.48-2.4-26.88-.67-15.61-.88-33.13-2.3-46.83-.72-6.86-1.73-12.75-3.32-17.09-.8-2.17-1.75-3.97-2.99-5.32-.62-.67-1.32-1.23-2.12-1.61-.79-.39-1.67-.6-2.58-.59-1.53,0-2.95.6-4.06,1.6-1.06.93-1.9,2.17-2.62,3.65-1.35,2.77-2.32,6.42-3.08,10.75-1.33,7.57-2.01,17.22-2.57,27.47-.83,15.36-1.38,32.08-3.28,44.85-.94,6.38-2.25,11.76-3.99,15.39-.87,1.82-1.84,3.18-2.85,4.03-1.02.86-2.02,1.25-3.25,1.26-1.07,0-1.95-.31-2.83-.94-.82-.59-1.62-1.51-2.36-2.74-1.4-2.31-2.55-5.73-3.45-9.89-1.58-7.29-2.39-16.85-2.9-27.05-.77-15.3-.86-32.04-1.96-45.04-.56-6.51-1.35-12.07-2.67-16.16-.67-2.05-1.46-3.74-2.53-5.03-.54-.64-1.16-1.18-1.88-1.56-.72-.38-1.53-.59-2.37-.59-.72,0-1.43.15-2.08.44-1.26.56-2.27,1.56-3.12,2.8-1.59,2.35-2.75,5.68-3.74,9.81-1.72,7.21-2.83,16.85-3.77,27.31-1.41,15.67-2.44,33.16-4.39,46.65-.97,6.74-2.19,12.48-3.74,16.4-.77,1.96-1.62,3.44-2.47,4.35-.42.46-.83.77-1.22.96-.39.19-.76.28-1.17.28-.69,0-1.29-.24-2-.85-.66-.57-1.35-1.5-2-2.75-1.23-2.35-2.32-5.8-3.24-9.98-1.62-7.32-2.75-16.9-3.71-27.11-1.44-15.32-2.51-32.06-4.35-45.06-.92-6.5-2.03-12.06-3.54-16.13-.76-2.04-1.61-3.72-2.7-4.98-.54-.63-1.16-1.16-1.86-1.54-.7-.38-1.5-.6-2.31-.6-.71,0-1.4.16-2.03.45-1.22.57-2.17,1.58-2.98,2.82-1.51,2.34-2.61,5.67-3.55,9.79-1.64,7.21-2.7,16.85-3.58,27.3-1.31,15.67-2.2,33.17-3.85,46.68-.82,6.75-1.84,12.51-3.14,16.44-.64,1.97-1.37,3.47-2.07,4.36-.35.45-.68.74-.97.91-.29.17-.52.23-.78.23-.23,0-.42-.05-.66-.16-.45-.21-1.04-.76-1.63-1.72-1.13-1.79-2.19-4.9-3.09-8.85-1.58-6.93-2.72-16.5-3.7-26.91-1.48-15.61-2.61-33.12-4.48-46.8-.94-6.84-2.05-12.72-3.54-17.02-.75-2.15-1.58-3.92-2.63-5.25-.53-.67-1.12-1.23-1.82-1.64-.69-.41-1.5-.65-2.32-.65-.69,0-1.37.17-1.98.47-1.18.59-2.08,1.59-2.84,2.83-1.43,2.34-2.48,5.65-3.39,9.77-1.58,7.2-2.66,16.83-3.59,27.29-1.39,15.67-2.46,33.16-4.33,46.66-.93,6.74-2.07,12.5-3.5,16.43-.71,1.96-1.49,3.46-2.25,4.36-.38.45-.74.75-1.06.93-.33.18-.6.25-.92.25-.27,0-.48-.05-.71-.16-.44-.21-.97-.72-1.5-1.66-.99-1.75-1.81-4.84-2.37-8.79-.99-6.92-1.29-16.5-1.44-26.91-.22-15.63-.1-33.15-1.59-46.87-.75-6.87-1.88-12.79-3.75-17.16-.94-2.19-2.07-4-3.53-5.33-1.45-1.33-3.29-2.12-5.31-2.11-1.69,0-3.26.55-4.56,1.52-1.22.91-2.22,2.16-3.07,3.65-1.58,2.79-2.66,6.47-3.46,10.82-1.39,7.6-1.9,17.26-2.1,27.53-.3,15.39.09,32.12-.7,44.92-.39,6.39-1.09,11.81-2.25,15.46-.57,1.83-1.26,3.19-1.97,4-.35.41-.69.68-1.03.84-.34.17-.66.25-1.07.25-.35,0-.65-.06-.96-.19-.58-.24-1.21-.78-1.84-1.73-1.18-1.76-2.22-4.83-3.01-8.77-1.39-6.91-2.11-16.48-2.64-26.88-.81-15.62-1.23-33.14-3.12-46.86-.95-6.87-2.24-12.79-4.23-17.15-1-2.18-2.18-3.99-3.66-5.31-1.47-1.32-3.32-2.11-5.34-2.1-1.69,0-3.26.55-4.56,1.52-1.22.91-2.23,2.16-3.08,3.64-1.59,2.79-2.68,6.47-3.51,10.81-1.44,7.6-2.03,17.26-2.39,27.52-.54,15.38-.55,32.1-2,44.87-.72,6.38-1.82,11.77-3.42,15.39-.79,1.81-1.71,3.16-2.67,4.01-.97.84-1.93,1.23-3.16,1.24v3c1.69,0,3.26-.55,4.56-1.52,1.22-.91,2.23-2.16,3.08-3.64,1.59-2.79,2.68-6.47,3.51-10.81,1.44-7.6,2.03-17.26,2.39-27.52.54-15.38.55-32.1,2-44.87.72-6.38,1.82-11.77,3.42-15.39.79-1.81,1.71-3.16,2.67-4.01.97-.84,1.93-1.23,3.16-1.24,1.07,0,1.95.31,2.84.94.83.6,1.64,1.51,2.39,2.75,1.42,2.32,2.61,5.73,3.55,9.9,1.65,7.29,2.56,16.85,3.19,27.05.95,15.31,1.26,32.05,2.6,45.05.68,6.51,1.6,12.07,3.06,16.17.74,2.05,1.6,3.75,2.75,5.03.58.64,1.23,1.17,1.98,1.54.74.37,1.58.57,2.43.57.74,0,1.47-.15,2.13-.44,1.29-.56,2.29-1.59,3.08-2.86,1.48-2.39,2.38-5.74,3.05-9.87,1.15-7.23,1.45-16.87,1.55-27.32.15-15.67-.15-33.15,1.13-46.61.63-6.72,1.69-12.44,3.29-16.3.8-1.93,1.73-3.38,2.72-4.29,1-.9,1.99-1.32,3.25-1.33,1.07,0,1.94.31,2.8.93.8.59,1.58,1.5,2.3,2.73,1.35,2.31,2.45,5.72,3.27,9.88,1.45,7.29,2.08,16.85,2.39,27.04.46,15.3.2,32.04.94,45.03.38,6.5,1,12.06,2.14,16.14.58,2.04,1.28,3.74,2.27,5.04.5.65,1.08,1.2,1.77,1.59.69.4,1.49.61,2.3.61.71,0,1.4-.16,2.03-.45,1.22-.57,2.18-1.57,3-2.81,1.53-2.34,2.65-5.67,3.63-9.79,1.7-7.21,2.84-16.85,3.81-27.3,1.45-15.67,2.48-33.17,4.24-46.68.88-6.75,1.94-12.51,3.28-16.44.66-1.97,1.4-3.47,2.11-4.37.35-.45.69-.75.98-.92.29-.17.52-.23.79-.23.23,0,.43.05.66.16.45.21,1.04.76,1.64,1.72,1.13,1.79,2.2,4.9,3.09,8.85,1.58,6.93,2.72,16.5,3.71,26.91,1.48,15.61,2.61,33.12,4.48,46.8.94,6.84,2.05,12.72,3.53,17.02.75,2.15,1.58,3.92,2.63,5.25.53.67,1.12,1.23,1.82,1.64.69.41,1.5.65,2.32.65.69,0,1.37-.17,1.98-.47,1.18-.59,2.07-1.6,2.83-2.84,1.41-2.34,2.43-5.66,3.31-9.78,1.52-7.2,2.51-16.84,3.36-27.29,1.26-15.67,2.18-33.16,3.93-46.66.87-6.74,1.97-12.5,3.36-16.43.69-1.96,1.46-3.46,2.21-4.36.37-.45.73-.75,1.05-.93.32-.18.6-.25.92-.25.27,0,.5.05.77.17.5.23,1.11.77,1.73,1.73,1.17,1.78,2.26,4.88,3.17,8.83,1.6,6.93,2.71,16.49,3.67,26.9,1.45,15.62,2.57,33.13,4.64,46.82,1.04,6.85,2.31,12.74,4.04,17.07.87,2.16,1.86,3.95,3.09,5.28.62.66,1.31,1.21,2.08,1.6.77.39,1.64.6,2.52.6,1.49,0,2.88-.62,3.98-1.6,1.04-.93,1.89-2.15,2.65-3.62,1.42-2.75,2.51-6.4,3.43-10.72,1.61-7.56,2.68-17.21,3.59-27.47,1.37-15.37,2.37-32.1,4.21-44.91.92-6.39,2.05-11.82,3.48-15.49.71-1.84,1.5-3.23,2.26-4.06.38-.42.75-.7,1.09-.88.34-.17.65-.25,1.01-.25.31,0,.57.06.84.18.51.23,1.1.75,1.68,1.7,1.1,1.75,2.04,4.84,2.73,8.78,1.22,6.92,1.77,16.49,2.16,26.89.58,15.62.81,33.14,2.55,46.87.88,6.87,2.11,12.79,4.06,17.16.98,2.18,2.14,4,3.61,5.32,1.46,1.32,3.31,2.12,5.33,2.11,1.69,0,3.27-.54,4.6-1.51,1.25-.9,2.29-2.14,3.2-3.62,1.69-2.78,2.93-6.45,3.92-10.8,1.72-7.6,2.65-17.26,3.32-27.52,1-15.39,1.39-32.12,2.86-44.91.72-6.39,1.73-11.8,3.13-15.46.69-1.83,1.49-3.2,2.29-4.03.4-.42.79-.7,1.18-.88.39-.18.77-.27,1.22-.27.77,0,1.39.25,2.09.85.65.57,1.32,1.48,1.93,2.72,1.16,2.33,2.11,5.77,2.85,9.94,1.3,7.32,1.96,16.89,2.41,27.09.68,15.32.87,32.06,2.11,45.06.62,6.51,1.48,12.07,2.86,16.16.7,2.05,1.51,3.74,2.6,5.02.55.64,1.17,1.18,1.9,1.56.72.38,1.54.59,2.37.59.72,0,1.43-.15,2.08-.44,1.26-.56,2.27-1.56,3.12-2.8,1.59-2.35,2.75-5.68,3.73-9.81,1.71-7.21,2.81-16.86,3.72-27.31,1.37-15.67,2.32-33.17,4.14-46.66.91-6.74,2.05-12.49,3.5-16.41.72-1.96,1.53-3.45,2.32-4.35.39-.45.78-.76,1.13-.94.35-.19.67-.27,1.04-.27.31,0,.59.06.9.19.58.25,1.26.81,1.96,1.78,1.31,1.79,2.57,4.88,3.65,8.83,1.91,6.92,3.37,16.48,4.63,26.88,1.89,15.6,3.34,33.11,5.35,46.77,1.01,6.84,2.15,12.71,3.61,17,.73,2.15,1.54,3.9,2.54,5.24.5.67,1.07,1.23,1.74,1.65.66.42,1.45.67,2.26.67.68,0,1.35-.18,1.93-.49,1.14-.61,1.97-1.62,2.68-2.86,1.33-2.33,2.3-5.64,3.14-9.76,1.46-7.19,2.43-16.83,3.27-27.28,1.25-15.67,2.19-33.16,3.9-46.67.85-6.75,1.91-12.5,3.24-16.44.66-1.97,1.4-3.47,2.11-4.37.35-.45.69-.75.98-.92.29-.17.52-.23.79-.23.23,0,.43.05.67.16.47.22,1.08.77,1.7,1.74,1.18,1.8,2.33,4.91,3.33,8.87,1.77,6.94,3.18,16.51,4.49,26.91,1.96,15.62,3.69,33.13,6.18,46.82,1.25,6.85,2.67,12.74,4.48,17.04.91,2.16,1.9,3.93,3.12,5.25.61.66,1.28,1.21,2.03,1.6.75.39,1.59.61,2.46.61.72,0,1.43-.15,2.08-.44,1.26-.56,2.26-1.56,3.1-2.81,1.57-2.35,2.69-5.69,3.63-9.82,1.63-7.22,2.6-16.86,3.34-27.32,1.1-15.68,1.67-33.18,2.98-46.69.65-6.75,1.5-12.51,2.64-16.46.57-1.97,1.22-3.48,1.86-4.37.31-.45.62-.73.86-.89.25-.15.42-.2.63-.2.18,0,.34.04.55.15.4.2.98.75,1.56,1.72,1.1,1.8,2.18,4.92,3.12,8.88,1.65,6.94,2.96,16.52,4.17,26.92,1.82,15.62,3.43,33.13,5.75,46.81,1.17,6.85,2.51,12.73,4.2,17.03.85,2.15,1.79,3.92,2.94,5.25.58.66,1.21,1.22,1.94,1.61.72.4,1.55.63,2.39.63.71,0,1.4-.16,2.03-.45,1.22-.57,2.17-1.57,2.98-2.82,1.51-2.34,2.61-5.67,3.56-9.79,1.65-7.21,2.74-16.84,3.68-27.3,1.4-15.67,2.45-33.16,4.36-46.66.95-6.74,2.13-12.49,3.62-16.41.74-1.96,1.56-3.45,2.36-4.35.4-.45.79-.76,1.14-.95.36-.19.68-.27,1.05-.27.31,0,.59.06.89.19.57.24,1.24.8,1.91,1.76,1.27,1.79,2.49,4.88,3.51,8.83,1.81,6.92,3.14,16.48,4.28,26.88,1.71,15.61,3.02,33.11,5.08,46.79,1.03,6.85,2.24,12.73,3.83,17.03.8,2.15,1.7,3.93,2.82,5.26.56.67,1.19,1.22,1.91,1.63.72.4,1.54.63,2.39.63,1.08,0,2.12-.33,3.05-.88,1.74-1.05,3.16-2.81,4.49-5.08,2.3-3.98,4.29-9.65,6.06-16.36,5.31-20.1,8.61-49.49,9.94-67.75l-2.99-.22h0Z"/>
  <path class="cls-1" d="m0,21.93c1.08,14.83,3.46,37.03,7.16,55.61,1.85,9.29,4.02,17.67,6.57,23.84,1.28,3.09,2.64,5.63,4.2,7.49.78.93,1.62,1.7,2.55,2.25.93.55,1.97.88,3.05.88h0c.71,0,1.4-.16,2.03-.45,1.23-.57,2.19-1.57,3.02-2.81,1.54-2.34,2.71-5.66,3.73-9.78,1.77-7.2,3.03-16.84,4.14-27.3,1.67-15.67,3.01-33.16,5.15-46.66,1.07-6.74,2.34-12.49,3.9-16.42.77-1.96,1.62-3.45,2.44-4.36.41-.46.8-.77,1.17-.95.37-.19.69-.27,1.06-.27.31,0,.59.06.88.19.56.24,1.21.8,1.87,1.75,1.24,1.78,2.4,4.87,3.36,8.82,1.69,6.92,2.86,16.48,3.83,26.88,1.45,15.61,2.47,33.11,4.29,46.79.92,6.85,2.02,12.73,3.55,17.03.77,2.16,1.63,3.93,2.74,5.27.55.67,1.18,1.23,1.9,1.63.72.4,1.54.64,2.38.63.71,0,1.4-.16,2.03-.45,1.23-.56,2.21-1.55,3.06-2.79,1.6-2.33,2.83-5.65,3.95-9.77,1.93-7.2,3.38-16.85,4.67-27.3,1.93-15.68,3.48-33.17,5.56-46.69,1.04-6.75,2.22-12.52,3.6-16.47.68-1.97,1.43-3.49,2.13-4.4.35-.46.68-.75.95-.92.27-.17.47-.21.68-.22.18,0,.33.04.52.14.36.18.9.71,1.42,1.67.99,1.78,1.88,4.9,2.59,8.86,1.25,6.94,2.01,16.51,2.64,26.92.94,15.62,1.59,33.13,3.25,46.82.83,6.85,1.91,12.74,3.46,17.06.78,2.16,1.67,3.94,2.83,5.29.58.67,1.23,1.23,1.97,1.63.74.4,1.59.62,2.45.62,1.46,0,2.8-.63,3.88-1.61,1.02-.92,1.88-2.13,2.66-3.59,1.46-2.74,2.66-6.37,3.73-10.7,1.87-7.56,3.31-17.2,4.62-27.46,1.96-15.37,3.61-32.11,5.81-44.92,1.1-6.4,2.34-11.83,3.78-15.53.71-1.85,1.48-3.26,2.2-4.1.36-.42.7-.7.99-.87.29-.16.53-.22.79-.22.23,0,.42.05.65.16.44.21,1.03.75,1.61,1.71,1.11,1.79,2.15,4.89,3,8.85,1.51,6.93,2.56,16.5,3.42,26.9,1.3,15.61,2.21,33.12,3.83,46.79.81,6.84,1.79,12.71,3.14,17,.68,2.15,1.43,3.91,2.41,5.25.49.67,1.04,1.24,1.71,1.66.66.42,1.45.68,2.26.68.68,0,1.35-.18,1.93-.48,1.14-.6,1.99-1.6,2.74-2.83,1.38-2.32,2.44-5.63,3.4-9.75,1.65-7.19,2.9-16.82,4.06-27.27,1.74-15.66,3.27-33.15,5.59-46.65,1.15-6.74,2.52-12.49,4.13-16.42.8-1.96,1.67-3.46,2.51-4.37.42-.46.82-.77,1.19-.96.37-.19.71-.27,1.07-.27.31,0,.58.06.88.19.56.24,1.2.79,1.85,1.75,1.22,1.78,2.36,4.86,3.29,8.81,1.64,6.92,2.75,16.48,3.65,26.88,1.37,15.61,2.31,33.12,4.15,46.8.93,6.85,2.07,12.74,3.66,17.05.8,2.16,1.71,3.94,2.88,5.28.58.67,1.24,1.23,1.98,1.62.74.4,1.59.62,2.45.62.72,0,1.43-.15,2.08-.44,1.26-.57,2.23-1.59,3.02-2.84,1.48-2.37,2.47-5.7,3.26-9.83,1.36-7.22,2-16.86,2.45-27.31.67-15.67.88-33.16,2.29-46.64.7-6.73,1.71-12.47,3.15-16.37.71-1.95,1.54-3.42,2.37-4.31.42-.45.83-.76,1.23-.95.4-.19.8-.29,1.26-.29.77,0,1.38.25,2.08.85.64.56,1.31,1.48,1.91,2.72,1.15,2.33,2.09,5.77,2.82,9.95,1.29,7.32,1.98,16.9,2.53,27.11.83,15.33,1.37,32.09,3.3,45.13.98,6.53,2.28,12.12,4.26,16.25.99,2.06,2.15,3.77,3.61,5.02,1.45,1.25,3.24,1.99,5.19,1.98,1.69,0,3.27-.54,4.59-1.51,1.24-.9,2.28-2.14,3.17-3.63,1.67-2.78,2.87-6.46,3.81-10.8,1.64-7.6,2.45-17.26,2.97-27.53.77-15.39.87-32.13,1.96-44.94.54-6.4,1.34-11.82,2.53-15.49.59-1.83,1.28-3.21,1.98-4.02.34-.41.68-.68.99-.84.31-.16.61-.24.96-.24.31,0,.58.06.88.19.56.24,1.2.79,1.85,1.75,1.23,1.78,2.36,4.87,3.3,8.81,1.65,6.92,2.77,16.48,3.71,26.88,1.41,15.61,2.43,33.12,4.41,46.81,1,6.85,2.22,12.74,3.92,17.07.86,2.16,1.83,3.95,3.05,5.28.61.66,1.3,1.22,2.08,1.61.77.39,1.63.6,2.52.6,1.49,0,2.88-.61,3.98-1.6,1.05-.92,1.91-2.15,2.68-3.61,1.44-2.75,2.56-6.4,3.51-10.72,1.67-7.56,2.8-17.21,3.77-27.47,1.45-15.38,2.51-32.11,4.33-44.92.9-6.4,2.01-11.82,3.38-15.51.68-1.84,1.43-3.24,2.16-4.07.36-.42.7-.7,1.01-.86.31-.16.58-.23.89-.23.27,0,.5.05.77.17.5.23,1.11.77,1.73,1.73,1.17,1.78,2.25,4.88,3.14,8.83,1.58,6.93,2.64,16.49,3.51,26.89,1.31,15.61,2.2,33.12,3.86,46.79.84,6.84,1.85,12.72,3.27,17.02.71,2.15,1.52,3.92,2.55,5.26.52.67,1.11,1.24,1.8,1.65.69.41,1.49.66,2.32.65.69,0,1.37-.17,1.98-.47,1.18-.59,2.08-1.59,2.86-2.83,1.44-2.34,2.52-5.65,3.47-9.77,1.64-7.2,2.78-16.84,3.77-27.29,1.48-15.67,2.62-33.17,4.47-46.67.92-6.75,2.03-12.51,3.4-16.44.68-1.97,1.43-3.47,2.15-4.37.36-.45.7-.75.99-.92.3-.17.53-.23.8-.23.23,0,.42.05.65.16.44.21,1.03.75,1.61,1.71,1.11,1.79,2.15,4.89,3.02,8.85,1.53,6.93,2.6,16.5,3.53,26.91,1.39,15.62,2.45,33.13,4.34,46.81.95,6.85,2.09,12.73,3.65,17.04.78,2.16,1.66,3.93,2.77,5.27.56.67,1.18,1.23,1.91,1.63.72.4,1.54.63,2.39.63.71,0,1.4-.16,2.02-.46,1.21-.59,2.1-1.63,2.81-2.89,1.31-2.38,2.12-5.7,2.72-9.83,1.03-7.21,1.32-16.84,1.47-27.29.22-15.66.11-33.14,1.57-46.59.72-6.72,1.86-12.44,3.53-16.3.83-1.93,1.79-3.39,2.79-4.3,1.02-.91,2.02-1.32,3.29-1.34,1.07,0,1.92.31,2.77.93.79.59,1.55,1.49,2.25,2.72,1.31,2.3,2.36,5.72,3.12,9.88,1.34,7.29,1.85,16.85,2.05,27.05.3,15.31-.09,32.05.71,45.05.4,6.51,1.09,12.08,2.38,16.18.65,2.05,1.45,3.76,2.55,5.06.55.64,1.2,1.18,1.94,1.56.74.38,1.57.58,2.43.58.74,0,1.47-.15,2.13-.43,1.3-.55,2.32-1.56,3.16-2.82,1.57-2.37,2.62-5.72,3.46-9.85,1.45-7.22,2.16-16.86,2.7-27.32.81-15.67,1.24-33.15,3.09-46.61.92-6.72,2.21-12.44,3.98-16.31.88-1.94,1.88-3.4,2.92-4.31,1.05-.92,2.08-1.34,3.35-1.35,1.07,0,1.92.31,2.77.93.79.59,1.56,1.49,2.26,2.72,1.32,2.31,2.38,5.72,3.17,9.89,1.39,7.29,1.98,16.86,2.34,27.06.54,15.32.54,32.07,2.02,45.1.75,6.53,1.84,12.12,3.65,16.26.91,2.07,2.01,3.79,3.43,5.05,1.41,1.26,3.2,2,5.15,1.99v-3c-1.07,0-1.92-.31-2.77-.93-.79-.59-1.56-1.49-2.26-2.72-1.32-2.31-2.38-5.72-3.17-9.89-1.39-7.29-1.98-16.86-2.34-27.06-.54-15.32-.54-32.07-2.02-45.1-.75-6.53-1.84-12.12-3.65-16.26-.91-2.07-2.01-3.79-3.43-5.05C485.44.73,483.66-.01,481.71,0c-1.69,0-3.27.54-4.6,1.51-1.25.9-2.29,2.14-3.2,3.62-1.69,2.78-2.93,6.46-3.91,10.8-1.71,7.6-2.62,17.26-3.26,27.53-.95,15.39-1.27,32.12-2.6,44.93-.66,6.39-1.59,11.81-2.9,15.47-.65,1.83-1.4,3.2-2.15,4.03-.37.41-.74.69-1.09.87-.35.17-.69.26-1.1.26-.35,0-.64-.06-.93-.19-.55-.24-1.15-.76-1.73-1.69-1.1-1.74-2.01-4.81-2.63-8.75-1.1-6.91-1.41-16.47-1.51-26.88-.15-15.62.16-33.14-1.14-46.86-.66-6.87-1.7-12.79-3.51-17.16-.91-2.19-2.01-4.01-3.46-5.34C440.57.79,438.73-.01,436.71,0c-1.69,0-3.27.55-4.57,1.52-1.23.91-2.25,2.15-3.12,3.64-1.62,2.79-2.76,6.47-3.62,10.81-1.5,7.6-2.13,17.27-2.45,27.53-.46,15.39-.2,32.13-.94,44.95-.37,6.4-1,11.83-2.04,15.5-.51,1.83-1.14,3.22-1.77,4.02-.31.4-.61.66-.88.81-.27.15-.51.22-.82.22-.27,0-.51-.05-.77-.17-.5-.23-1.12-.78-1.75-1.74-1.18-1.79-2.3-4.88-3.22-8.83-1.63-6.93-2.78-16.49-3.74-26.89-1.44-15.61-2.48-33.12-4.26-46.79-.89-6.84-1.96-12.72-3.41-17.02-.73-2.15-1.55-3.92-2.59-5.26-.52-.67-1.11-1.23-1.81-1.65-.69-.41-1.5-.66-2.32-.65-.69,0-1.37.17-1.98.47-1.18.59-2.08,1.59-2.86,2.83-1.44,2.34-2.52,5.65-3.47,9.77-1.64,7.2-2.78,16.84-3.76,27.29-1.48,15.67-2.62,33.17-4.47,46.67-.92,6.75-2.03,12.51-3.4,16.44-.68,1.97-1.43,3.47-2.15,4.37-.36.45-.7.75-.99.92-.3.17-.53.23-.8.23-.23,0-.42-.05-.65-.16-.44-.21-1.01-.75-1.59-1.71-1.09-1.79-2.11-4.89-2.94-8.84-1.47-6.93-2.47-16.5-3.3-26.91-1.26-15.62-2.17-33.12-3.95-46.81-.89-6.85-1.99-12.73-3.51-17.04-.77-2.16-1.63-3.93-2.73-5.27-.55-.67-1.18-1.23-1.9-1.63-.72-.4-1.54-.64-2.38-.63-.71,0-1.4.16-2.03.45-1.22.57-2.17,1.57-2.98,2.82-1.51,2.34-2.62,5.67-3.57,9.79-1.66,7.21-2.77,16.84-3.73,27.3-1.45,15.67-2.57,33.16-4.62,46.65-1.02,6.74-2.28,12.48-3.86,16.4-.78,1.96-1.65,3.44-2.5,4.35-.43.46-.84.77-1.23.96-.39.19-.76.28-1.18.28-.69,0-1.28-.24-1.99-.85-.65-.57-1.33-1.5-1.98-2.75-1.21-2.34-2.28-5.79-3.17-9.97-1.56-7.32-2.63-16.9-3.54-27.11-1.36-15.32-2.36-32.07-4.23-45.07-.94-6.51-2.08-12.07-3.66-16.15-.8-2.04-1.69-3.73-2.83-4.99-.57-.63-1.21-1.16-1.94-1.53-.73-.37-1.54-.58-2.38-.58-.72,0-1.43.15-2.08.45-1.25.57-2.22,1.59-2.99,2.85-1.45,2.37-2.39,5.71-3.13,9.84-1.27,7.22-1.81,16.85-2.2,27.3-.58,15.66-.82,33.15-2.53,46.6-.85,6.72-2.09,12.44-3.83,16.31-.86,1.94-1.85,3.39-2.88,4.31-1.04.92-2.06,1.33-3.33,1.34-1.07,0-1.95-.31-2.84-.94-.83-.6-1.64-1.51-2.39-2.75-1.42-2.32-2.61-5.74-3.55-9.9-1.66-7.29-2.59-16.85-3.25-27.05-.99-15.31-1.39-32.05-2.87-45.06-.75-6.51-1.75-12.08-3.31-16.19-.79-2.05-1.71-3.76-2.93-5.03-.61-.63-1.29-1.16-2.07-1.52C247.46.19,246.61,0,245.73,0c-1.53,0-2.95.6-4.07,1.6-1.06.93-1.91,2.17-2.64,3.65-1.37,2.77-2.35,6.42-3.11,10.75-1.34,7.57-2,17.23-2.45,27.48-.68,15.38-.88,32.11-2.1,44.91-.6,6.39-1.47,11.82-2.72,15.48-.61,1.83-1.33,3.21-2.04,4.03-.35.41-.69.68-1.01.85-.32.17-.62.24-.97.24-.31,0-.58-.06-.88-.19-.56-.24-1.2-.79-1.85-1.75-1.22-1.78-2.36-4.86-3.29-8.81-1.64-6.92-2.74-16.48-3.65-26.88-1.37-15.61-2.31-33.12-4.15-46.8-.93-6.85-2.07-12.74-3.66-17.05-.8-2.16-1.71-3.94-2.88-5.28-.58-.67-1.24-1.23-1.98-1.62C201.53.22,200.69,0,199.82,0c-1.46,0-2.8.63-3.88,1.61-1.02.92-1.86,2.14-2.63,3.6-1.44,2.74-2.6,6.38-3.63,10.7-1.8,7.56-3.14,17.21-4.33,27.46-1.78,15.38-3.21,32.11-5.17,44.93-.98,6.41-2.1,11.84-3.41,15.55-.65,1.85-1.36,3.26-2.03,4.1-.33.42-.64.69-.89.85-.26.15-.44.2-.65.2-.18,0-.33-.04-.54-.14-.38-.19-.93-.73-1.48-1.69-1.04-1.79-2.01-4.9-2.8-8.86-1.41-6.94-2.38-16.51-3.21-26.92-1.25-15.62-2.19-33.13-3.92-46.8-.87-6.84-1.92-12.72-3.37-17.02-.73-2.15-1.54-3.92-2.59-5.26-.52-.67-1.11-1.23-1.81-1.65C152.79.24,151.99,0,151.16,0c-.69,0-1.37.17-1.98.46-1.19.58-2.1,1.57-2.91,2.81-1.5,2.33-2.67,5.64-3.72,9.76-1.83,7.2-3.25,16.83-4.56,27.28-1.97,15.67-3.7,33.16-6.16,46.65-1.22,6.74-2.64,12.49-4.29,16.42-.82,1.96-1.71,3.46-2.56,4.38-.42.46-.83.77-1.2.97-.38.19-.71.27-1.08.28-.31,0-.58-.06-.87-.19-.55-.24-1.19-.79-1.82-1.74-1.2-1.77-2.31-4.86-3.19-8.8-1.56-6.92-2.54-16.48-3.27-26.87-1.1-15.6-1.66-33.11-2.98-46.77-.66-6.84-1.51-12.71-2.75-17-.63-2.15-1.34-3.91-2.29-5.26-.48-.67-1.02-1.25-1.68-1.68C103.18.25,102.39,0,101.58,0c-.68,0-1.35.17-1.93.48-1.14.6-2,1.6-2.75,2.83-1.4,2.32-2.49,5.63-3.47,9.74-1.71,7.19-3.02,16.82-4.24,27.27-1.82,15.67-3.43,33.16-5.73,46.66-1.15,6.74-2.48,12.5-4.03,16.43-.77,1.97-1.61,3.47-2.41,4.38-.4.46-.78.77-1.12.95-.34.18-.63.26-.95.26-.27,0-.5-.05-.77-.17-.5-.23-1.11-.77-1.73-1.73-1.17-1.78-2.26-4.88-3.16-8.83-1.59-6.93-2.69-16.49-3.62-26.9-1.4-15.61-2.44-33.12-4.38-46.81-.97-6.85-2.16-12.74-3.78-17.05-.82-2.16-1.74-3.94-2.91-5.27-.59-.67-1.24-1.22-1.99-1.62C51.86.22,51.02,0,50.16,0c-.72,0-1.43.15-2.08.44-1.27.55-2.29,1.54-3.17,2.78-1.64,2.34-2.88,5.67-3.97,9.8-1.88,7.21-3.21,16.86-4.36,27.31-1.72,15.68-3.03,33.17-5.06,46.67-1.01,6.74-2.21,12.5-3.68,16.43-.73,1.96-1.53,3.46-2.3,4.37-.38.45-.75.76-1.08.94-.33.18-.61.25-.93.25-.48,0-.96-.13-1.52-.46-1.04-.6-2.25-1.97-3.43-4-2.07-3.56-4.03-9.06-5.76-15.62C7.62,69.19,4.3,39.83,2.99,21.71l-2.99.22Z"/>
  <path class="cls-1" d="m989.46,109c-.27,0-.51-.05-.78-.18-.51-.23-1.14-.78-1.77-1.74-1.2-1.79-2.34-4.89-3.31-8.84-1.71-6.93-2.96-16.49-4.07-26.9-1.66-15.61-3-33.12-5.17-46.81-1.09-6.85-2.37-12.74-4.07-17.05-.86-2.16-1.81-3.93-3-5.26-.6-.66-1.26-1.22-2.01-1.61-.75-.39-1.59-.62-2.45-.61-.72,0-1.43.15-2.08.44-1.26.56-2.28,1.55-3.14,2.8-1.61,2.34-2.79,5.68-3.8,9.81-1.76,7.21-2.93,16.86-3.9,27.31-1.46,15.68-2.47,33.17-4.28,46.67-.9,6.74-2,12.5-3.4,16.43-.69,1.96-1.47,3.46-2.22,4.36-.37.45-.73.75-1.05.93-.32.18-.6.25-.92.25-.27,0-.51-.05-.79-.18-.53-.23-1.18-.8-1.84-1.76-1.25-1.8-2.47-4.89-3.52-8.85-1.86-6.93-3.31-16.49-4.59-26.89-1.92-15.61-3.47-33.11-5.57-46.78-1.06-6.84-2.24-12.71-3.73-17-.75-2.15-1.57-3.9-2.58-5.23-.51-.66-1.08-1.23-1.75-1.65-.67-.42-1.45-.67-2.26-.67-.68,0-1.35.18-1.93.49-1.14.62-1.95,1.63-2.63,2.88-1.27,2.34-2.17,5.65-2.91,9.77-1.29,7.19-2.05,16.82-2.68,27.27-.94,15.66-1.6,33.15-3.23,46.64-.81,6.74-1.89,12.49-3.3,16.4-.7,1.96-1.49,3.44-2.27,4.34-.39.45-.77.75-1.11.94-.35.18-.67.26-1.04.27-.61,0-1.18-.22-1.88-.84-.65-.58-1.35-1.51-2.02-2.77-1.26-2.36-2.43-5.82-3.46-10-1.82-7.33-3.26-16.91-4.56-27.12-1.95-15.32-3.6-32.06-5.83-45.05-1.12-6.5-2.37-12.05-3.94-16.11-.79-2.03-1.65-3.7-2.71-4.96-.53-.63-1.12-1.16-1.81-1.54-.68-.38-1.46-.61-2.26-.61-.69,0-1.37.17-1.98.47-1.18.59-2.08,1.59-2.84,2.84-1.43,2.34-2.47,5.66-3.38,9.78-1.57,7.2-2.61,16.84-3.48,27.29-1.3,15.67-2.22,33.17-3.82,46.68-.8,6.75-1.78,12.51-3.02,16.46-.61,1.97-1.31,3.48-1.97,4.38-.33.45-.64.74-.89.9-.26.16-.44.21-.65.21-.18,0-.34-.04-.55-.14-.4-.2-.97-.75-1.54-1.71-1.09-1.8-2.14-4.92-3.05-8.88-1.6-6.94-2.85-16.52-4-26.93-1.73-15.62-3.27-33.13-5.62-46.82-1.18-6.85-2.55-12.74-4.31-17.05-.89-2.16-1.87-3.93-3.07-5.26-.6-.66-1.27-1.21-2.03-1.6-.75-.39-1.59-.61-2.46-.61-.72,0-1.43.15-2.08.44-1.26.56-2.27,1.56-3.12,2.8-1.59,2.35-2.74,5.68-3.73,9.81-1.71,7.21-2.81,16.86-3.72,27.31-1.37,15.67-2.32,33.17-4.14,46.66-.91,6.74-2.05,12.49-3.5,16.41-.72,1.96-1.53,3.45-2.32,4.35-.39.45-.78.76-1.13.94-.35.19-.67.27-1.04.27-.31,0-.57-.06-.85-.18-.52-.23-1.12-.76-1.72-1.71-1.12-1.76-2.11-4.84-2.85-8.79-1.31-6.92-1.96-16.48-2.4-26.88-.67-15.61-.88-33.13-2.31-46.83-.72-6.86-1.72-12.75-3.32-17.09-.8-2.17-1.75-3.97-2.99-5.32-.62-.67-1.32-1.23-2.12-1.61-.79-.39-1.67-.6-2.58-.59-1.53,0-2.95.6-4.06,1.6-1.06.93-1.9,2.17-2.62,3.65-1.35,2.77-2.32,6.42-3.08,10.75-1.33,7.57-2.01,17.22-2.57,27.47-.83,15.36-1.37,32.08-3.28,44.85-.94,6.38-2.25,11.76-3.99,15.39-.87,1.82-1.84,3.18-2.85,4.03-1.02.86-2.02,1.25-3.25,1.26-1.07,0-1.95-.31-2.83-.94-.82-.59-1.62-1.51-2.36-2.74-1.4-2.31-2.55-5.73-3.45-9.89-1.58-7.29-2.39-16.85-2.9-27.05-.77-15.3-.86-32.04-1.96-45.04-.56-6.51-1.35-12.07-2.67-16.16-.67-2.05-1.46-3.74-2.53-5.03-.54-.64-1.16-1.18-1.88-1.56-.72-.38-1.53-.59-2.37-.59-.72,0-1.43.15-2.08.44-1.26.56-2.27,1.56-3.12,2.8-1.59,2.35-2.75,5.68-3.74,9.81-1.72,7.21-2.83,16.85-3.77,27.31-1.41,15.67-2.44,33.16-4.39,46.65-.97,6.74-2.19,12.48-3.74,16.4-.77,1.96-1.62,3.44-2.47,4.35-.42.46-.83.77-1.22.96-.39.19-.76.28-1.17.28-.69,0-1.29-.24-2-.85-.66-.57-1.35-1.5-2-2.75-1.23-2.35-2.32-5.79-3.24-9.98-1.62-7.32-2.75-16.9-3.71-27.11-1.44-15.32-2.51-32.06-4.35-45.06-.92-6.5-2.03-12.06-3.54-16.13-.76-2.04-1.61-3.72-2.7-4.98-.54-.63-1.16-1.16-1.86-1.54-.7-.38-1.5-.6-2.31-.6-.71,0-1.4.16-2.03.45-1.22.57-2.17,1.58-2.98,2.82-1.51,2.34-2.61,5.67-3.55,9.79-1.64,7.21-2.7,16.85-3.58,27.3-1.31,15.67-2.2,33.17-3.85,46.68-.82,6.75-1.84,12.51-3.14,16.44-.64,1.97-1.37,3.47-2.07,4.36-.35.45-.68.74-.97.91-.29.17-.52.23-.78.23-.23,0-.42-.05-.66-.16-.45-.21-1.04-.76-1.63-1.72-1.13-1.79-2.19-4.9-3.09-8.85-1.58-6.93-2.72-16.5-3.7-26.91-1.48-15.61-2.61-33.12-4.48-46.8-.94-6.84-2.05-12.72-3.53-17.02-.75-2.15-1.58-3.92-2.63-5.25-.53-.67-1.12-1.23-1.82-1.64-.69-.41-1.5-.65-2.32-.65-.69,0-1.37.17-1.98.47-1.18.59-2.08,1.59-2.84,2.83-1.43,2.34-2.48,5.65-3.39,9.77-1.58,7.2-2.66,16.83-3.59,27.29-1.39,15.67-2.46,33.16-4.33,46.66-.93,6.74-2.07,12.5-3.5,16.43-.71,1.96-1.49,3.46-2.25,4.36-.38.45-.74.75-1.06.93-.33.18-.6.25-.92.25-.27,0-.48-.05-.71-.16-.44-.21-.97-.72-1.5-1.66-.99-1.75-1.81-4.84-2.37-8.79-.99-6.92-1.29-16.5-1.44-26.91-.22-15.63-.1-33.15-1.59-46.87-.75-6.87-1.88-12.79-3.75-17.16-.94-2.19-2.07-4-3.53-5.33-1.45-1.33-3.29-2.12-5.31-2.11-1.69,0-3.26.55-4.56,1.52-1.22.91-2.22,2.16-3.07,3.65-1.58,2.79-2.66,6.47-3.46,10.82-1.39,7.6-1.9,17.26-2.1,27.53-.3,15.39.09,32.12-.7,44.92-.39,6.39-1.09,11.81-2.25,15.46-.57,1.83-1.26,3.19-1.97,4-.35.41-.69.68-1.03.84-.33.17-.66.25-1.07.25-.35,0-.65-.06-.96-.19-.58-.24-1.21-.78-1.84-1.73-1.19-1.76-2.22-4.83-3.01-8.77-1.39-6.91-2.11-16.48-2.64-26.88-.81-15.62-1.23-33.14-3.12-46.86-.95-6.87-2.24-12.79-4.23-17.15-1-2.18-2.17-3.99-3.66-5.31-1.47-1.32-3.32-2.11-5.34-2.1-1.69,0-3.26.55-4.56,1.52-1.22.91-2.23,2.16-3.07,3.64-1.59,2.79-2.68,6.47-3.51,10.81-1.44,7.6-2.03,17.26-2.39,27.52-.54,15.38-.55,32.1-2,44.87-.72,6.38-1.82,11.77-3.42,15.39-.79,1.81-1.71,3.16-2.67,4.01-.97.84-1.93,1.23-3.16,1.24v3c1.69,0,3.26-.55,4.56-1.52,1.22-.91,2.23-2.16,3.08-3.64,1.59-2.79,2.68-6.47,3.51-10.81,1.44-7.6,2.03-17.26,2.39-27.52.54-15.38.55-32.1,2-44.87.72-6.38,1.82-11.77,3.42-15.39.79-1.81,1.71-3.16,2.67-4.01.97-.84,1.93-1.23,3.16-1.24,1.07,0,1.95.31,2.84.94.83.59,1.64,1.51,2.39,2.75,1.42,2.32,2.61,5.73,3.55,9.9,1.65,7.29,2.56,16.85,3.19,27.05.95,15.31,1.26,32.05,2.61,45.05.68,6.51,1.6,12.07,3.06,16.17.74,2.05,1.6,3.75,2.75,5.03.58.64,1.23,1.17,1.98,1.54.74.37,1.58.57,2.43.57.74,0,1.47-.15,2.13-.44,1.29-.56,2.29-1.59,3.08-2.86,1.48-2.39,2.38-5.74,3.05-9.87,1.15-7.23,1.45-16.87,1.55-27.32.15-15.67-.15-33.15,1.13-46.61.63-6.72,1.69-12.44,3.29-16.3.8-1.93,1.73-3.38,2.72-4.29,1-.9,1.99-1.32,3.25-1.33,1.07,0,1.93.31,2.8.93.8.59,1.58,1.5,2.3,2.73,1.35,2.31,2.45,5.72,3.27,9.88,1.45,7.29,2.08,16.85,2.39,27.04.46,15.3.2,32.04.94,45.03.38,6.5,1,12.06,2.14,16.14.58,2.04,1.28,3.74,2.27,5.04.5.65,1.08,1.2,1.77,1.59.69.4,1.49.61,2.3.61.71,0,1.4-.16,2.03-.45,1.22-.57,2.18-1.57,3-2.81,1.53-2.34,2.65-5.67,3.63-9.79,1.7-7.21,2.84-16.85,3.81-27.3,1.45-15.67,2.48-33.17,4.24-46.68.88-6.75,1.94-12.51,3.28-16.44.66-1.97,1.4-3.47,2.11-4.37.35-.45.69-.75.98-.92.29-.17.52-.23.79-.23.23,0,.42.05.66.16.45.21,1.04.76,1.63,1.72,1.13,1.79,2.19,4.9,3.09,8.85,1.58,6.93,2.72,16.5,3.7,26.91,1.48,15.61,2.61,33.12,4.48,46.8.94,6.84,2.05,12.72,3.53,17.02.75,2.15,1.58,3.92,2.63,5.25.53.67,1.12,1.23,1.82,1.64.69.41,1.5.65,2.32.65.69,0,1.37-.17,1.98-.47,1.18-.59,2.07-1.6,2.83-2.84,1.41-2.34,2.43-5.66,3.31-9.78,1.52-7.2,2.51-16.84,3.36-27.29,1.26-15.67,2.18-33.16,3.94-46.66.87-6.74,1.97-12.5,3.36-16.43.69-1.96,1.46-3.46,2.21-4.36.37-.45.73-.75,1.05-.93.32-.18.6-.25.92-.25.27,0,.5.05.77.17.5.23,1.11.77,1.73,1.73,1.17,1.78,2.26,4.88,3.17,8.83,1.6,6.93,2.71,16.49,3.67,26.9,1.45,15.62,2.56,33.13,4.64,46.82,1.04,6.85,2.31,12.74,4.04,17.07.87,2.16,1.86,3.95,3.09,5.28.62.66,1.31,1.21,2.08,1.6.77.39,1.64.6,2.52.6,1.49,0,2.88-.62,3.98-1.6,1.04-.93,1.89-2.15,2.65-3.62,1.42-2.75,2.51-6.4,3.43-10.72,1.61-7.56,2.68-17.21,3.59-27.47,1.37-15.37,2.37-32.1,4.21-44.91.92-6.39,2.05-11.82,3.48-15.49.71-1.84,1.5-3.23,2.26-4.06.38-.42.75-.7,1.09-.88.34-.17.65-.25,1.01-.25.31,0,.57.06.84.18.51.23,1.1.75,1.68,1.7,1.1,1.75,2.04,4.84,2.73,8.78,1.22,6.92,1.77,16.49,2.16,26.89.58,15.62.81,33.14,2.55,46.87.88,6.87,2.12,12.79,4.06,17.16.98,2.18,2.14,4,3.62,5.32,1.47,1.32,3.31,2.12,5.33,2.11,1.69,0,3.27-.54,4.6-1.51,1.25-.9,2.29-2.14,3.2-3.62,1.69-2.78,2.93-6.45,3.92-10.8,1.72-7.6,2.65-17.26,3.32-27.52,1-15.39,1.39-32.12,2.86-44.91.72-6.39,1.73-11.8,3.13-15.46.69-1.83,1.49-3.2,2.29-4.03.4-.42.79-.7,1.18-.88.39-.18.77-.27,1.22-.27.77,0,1.39.25,2.09.85.65.57,1.32,1.48,1.93,2.72,1.16,2.33,2.11,5.77,2.85,9.94,1.3,7.32,1.96,16.89,2.41,27.09.68,15.32.87,32.06,2.11,45.06.62,6.51,1.48,12.07,2.86,16.16.7,2.05,1.51,3.74,2.6,5.02.55.64,1.17,1.18,1.9,1.56.72.38,1.54.59,2.37.59.72,0,1.43-.15,2.08-.44,1.26-.56,2.27-1.56,3.12-2.8,1.59-2.35,2.74-5.68,3.73-9.81,1.71-7.21,2.81-16.86,3.72-27.31,1.37-15.67,2.32-33.17,4.14-46.66.91-6.74,2.05-12.49,3.5-16.41.72-1.96,1.53-3.45,2.32-4.35.39-.45.78-.76,1.13-.94.35-.19.67-.27,1.04-.27.61,0,1.17.22,1.87.84.64.58,1.33,1.51,1.99,2.77,1.24,2.36,2.38,5.81,3.37,10,1.74,7.33,3.09,16.91,4.27,27.11,1.78,15.32,3.2,32.06,5.19,45.04,1,6.5,2.12,12.04,3.55,16.1.72,2.03,1.51,3.69,2.5,4.95.5.63,1.05,1.17,1.7,1.56.65.4,1.41.63,2.2.63.68,0,1.35-.18,1.93-.49,1.14-.61,1.97-1.62,2.68-2.86,1.33-2.33,2.3-5.64,3.14-9.76,1.46-7.19,2.43-16.83,3.26-27.28,1.25-15.67,2.19-33.16,3.9-46.67.85-6.75,1.91-12.5,3.24-16.44.66-1.97,1.4-3.47,2.11-4.37.35-.45.69-.75.98-.92.29-.17.52-.23.79-.23.23,0,.43.05.67.16.47.22,1.08.77,1.7,1.74,1.18,1.8,2.33,4.91,3.33,8.87,1.77,6.94,3.18,16.51,4.49,26.91,1.96,15.62,3.69,33.13,6.18,46.82,1.25,6.85,2.67,12.74,4.48,17.04.91,2.16,1.9,3.93,3.12,5.25.61.66,1.28,1.21,2.03,1.6.75.39,1.59.61,2.46.61.72,0,1.43-.15,2.08-.44,1.26-.56,2.26-1.56,3.1-2.81,1.57-2.35,2.69-5.69,3.63-9.82,1.63-7.22,2.6-16.86,3.33-27.32,1.1-15.68,1.67-33.18,2.98-46.69.65-6.75,1.5-12.51,2.64-16.46.57-1.97,1.22-3.48,1.86-4.37.31-.45.62-.73.86-.89.25-.15.42-.2.63-.2.18,0,.34.04.56.15.4.2.98.75,1.56,1.72,1.1,1.8,2.18,4.92,3.12,8.88,1.65,6.94,2.96,16.52,4.17,26.92,1.82,15.62,3.42,33.13,5.75,46.81,1.17,6.85,2.5,12.73,4.2,17.03.85,2.15,1.79,3.92,2.94,5.25.58.66,1.21,1.22,1.94,1.61.72.4,1.55.63,2.39.63.71,0,1.4-.16,2.03-.45,1.22-.57,2.17-1.57,2.98-2.82,1.51-2.34,2.61-5.67,3.57-9.79,1.65-7.21,2.74-16.84,3.68-27.3,1.4-15.67,2.45-33.16,4.36-46.66.95-6.74,2.13-12.49,3.62-16.41.74-1.96,1.56-3.45,2.36-4.35.4-.45.78-.76,1.14-.95.36-.19.68-.27,1.05-.27.31,0,.59.06.89.19.57.24,1.24.8,1.91,1.76,1.28,1.79,2.49,4.88,3.51,8.83,1.81,6.92,3.14,16.48,4.28,26.88,1.72,15.61,3.02,33.11,5.08,46.79,1.03,6.85,2.24,12.73,3.83,17.03.8,2.15,1.7,3.93,2.82,5.26.56.67,1.19,1.22,1.91,1.63.72.4,1.54.63,2.39.63v-3Z"/>
</svg>